   <svg
        version="1.1"
        id="Layer_1"
        xmlns="http://www.w3.org/2000/svg"
        xmlns:xlink="http://www.w3.org/1999/xlink"
        x="0px"
        y="0px"
        viewBox="0 0 809.3 822.6"
        style="enable-background: new 0 0 809.3 822.6"
        xml:space="preserve"
        id="dashboard-svg"
      >
        <style>
          .st0 {
            fill: #f0f0f0;
          }
          .st1 {
            fill: #f2f2f2;
          }
          .st2 {
            fill: #ffffff;
          }
          .st3 {
            fill: #e6e6e6;
          }
          .st4 {
            fill: #cacaca;
          }
          .st5 {
            fill: #3f3d56;
          }
          .st6 {
            fill: #e2725a;
          }
          .st7 {
            fill: #ffb8b8;
          }
          .st8 {
            fill: #2f2e41;
          }
          .st9 {
            fill: #ffb6b6;
          }
          .st10 {
            fill: #9e616a;
          }
        </style>

        <path
          class="st0"
          d="
          M 168,414.3
          c-36.6-36-52-73.6-43.5-105.8
          c
            10.9-41.3,
            59.6-69.9,
            133.4-78.4l0.3,
            2.4
	        c-72.8,8.4-120.7,36.3-131.4,76.7
          c-8.3,31.4,6.9,68.1,42.9,103.5
          
          c  
          100 100 ,
          150 10,

          180 120
          
          "
        />
        <path
          class="st0"
          d="
  M
  521.1,
  542.2
  c-45.7,
  0-95.3-6.8-144.6-19.8
  c-61-16.1-116.9-40.5-161.6-70.4l1.3-2c44.6,29.8,100.2,54,160.9,70.1
	c
  54.9,
  14.5,
  110.1,
  21.3,
  159.8,
  19.5l0.1,
  2.4 
  C 
  531.7,
  542.1,
  526.4,
  542.2,
  521.1,
  542.2 
  z"
        />
        <path
          class="st0"
          d="M625.8,527.2l-0.8-2.3c40.8-13.8,66.4-36.1,73.9-64.3c9.5-35.9-11.2-77.7-58.2-117.5
	c-47.3-40-115.5-73.2-192.1-93.5l0.6-2.3c76.9,20.4,145.4,53.7,193,93.9c47.8,40.4,68.8,83,59,119.9
	C693.6,490.3,667.5,513.1,625.8,527.2z"
        />
        <path
          class="st0"
          d="M514.2,232.2c-14.8-4.8-30.1-9.3-45.3-13.4c-87.8-23.2-174.1-31.5-249.6-23.9l-0.2-2.4
	c75.8-7.7,162.4,0.6,250.4,23.9c15.3,4.1,30.6,8.6,45.5,13.4L514.2,232.2z"
        />
        <path
          class="st0"
          d="M111.9,417.9c-36.6-36-52-73.6-43.5-105.8c10.9-41.3,59.6-69.9,133.4-78.4l0.3,2.4
	c-72.8,8.4-120.7,36.3-131.4,76.7c-8.3,31.4,6.9,68.1,42.9,103.5
  L 165, 458z"
        />
        <path
          class="st0"
          d="M465,545.8c-45.7,0-95.3-6.8-144.6-19.8c-61-16.1-116.9-40.5-161.6-70.4l1.3-2c44.6,29.8,100.2,54,160.9,70.1
	c54.9,14.5,110.1,21.3,159.8,19.5l0.1,2.4C475.7,545.7,470.4,545.8,465,545.8z"
        />
        <path
          class="st0"
          d="M569.8,530.7l-0.8-2.3c40.8-13.8,66.4-36.1,73.9-64.3c9.5-35.9-11.2-77.7-58.2-117.5
	c-47.3-40-115.5-73.2-192.1-93.5l0.6-2.3c76.9,20.4,145.4,53.7,193,93.9c47.8,40.4,68.8,83,59,119.9
	C637.5,493.9,611.4,516.7,569.8,530.7z"
        />
        <path
          class="st0"
          d="M458.1,235.8c-14.8-4.8-30.1-9.3-45.3-13.4c-87.8-23.2-174.1-31.5-249.6-23.9l-0.2-2.4
	c75.8-7.7,162.4,0.6,250.4,23.9c15.3,4.1,30.6,8.6,45.5,13.4L458.1,235.8z"
        />

        <path
          class="st2"
          d="M619.2,530.4c-0.6,2.8-2.6,5.2-5.4,6.2c-0.7,0.3-0.2,1.3,0.5,1c3-1.2,5.2-3.7,5.9-6.8c0.1-0.3-0.1-0.6-0.3-0.7
	C619.7,530,619.3,530.2,619.2,530.4L619.2,530.4z"
        />
        <circle class="st3" cx="647.5" cy="443.5" r="9.5" />
        <circle class="st3" cx="337" cy="193.4" r="9.5" />
        <circle class="st3" cx="70" cy="350" r="9.5" />
        <circle class="st3" cx="178" cy="419" r="12" />
        <circle class="st3" cx="144" cy="444" r="18" />
        <circle class="st3" cx="515" cy="230" r="7.5" />
        <circle class="st3" cx="400" cy="252" r="12" />
        <circle class="st3" cx="450" cy="242" r="18" />
        <circle class="st3" cx="473" cy="543" r="12" />
        <path
          class="st2"
          d="M246.2,463c-0.1,0-0.2,0-0.2,0c0.3-0.2,0.6-0.4,0.9-0.7L246.2,463z"
        />

        <path
          class="st2"
          d="M715,227c0.1,0,0.2,0,0.2,0c-0.3-0.2-0.6-0.4-0.9-0.7L715,227z"
        />
        <path
          class="st2"
          d="M148.2,160c-0.1,0-0.2,0-0.2,0c0.3-0.2,0.6-0.4,0.9-0.7L148.2,160z"
        />
        <g id="Bubbles_00000021080711329547749260000018062199235580306572_">
          <g
            id="svg-coparent"
            routerLink="/dashboard/questionnaire/PFA"
            class="tw-cursor-pointer"
          >
            <path
              class="st1"
              d="M180.8,522.1c0,2.4,0.1,4.9,0.2,7.3c0.2,2.9,0.5,5.7,0.9,8.6c1.4,9.6,4.1,18.9,8,27.7
			c0.2,0.4,0.4,0.9,0.6,1.3l0.3,0.7c0.1,0.2,0.2,0.4,0.3,0.7s0.3,0.6,0.4,0.8c0.2,0.3,0.3,0.7,0.5,1c0,0,0,0.1,0.1,0.1
			c0.1,0.3,0.3,0.6,0.5,0.9c0,0.1,0.1,0.1,0.1,0.2c0.2,0.3,0.4,0.7,0.5,1c0.2,0.4,0.4,0.7,0.6,1.1c0.5,0.9,1,1.8,1.5,2.7
			c0.1,0.3,0.3,0.5,0.5,0.8c0.1,0.2,0.3,0.5,0.4,0.7c0.1,0.2,0.2,0.3,0.3,0.5c0.2,0.3,0.3,0.5,0.5,0.8c0.4,0.6,0.8,1.2,1.1,1.8l0,0
			c0.2,0.3,0.4,0.5,0.5,0.8l0,0c0.5,0.8,1.1,1.6,1.6,2.4l0,0l0,0c0.4,0.6,0.9,1.3,1.4,1.9l0,0c0.3,0.4,0.6,0.8,0.9,1.2
			c0.2,0.3,0.5,0.7,0.7,1c0,0.1,0.1,0.1,0.2,0.2l0,0c0.1,0.1,0.1,0.2,0.2,0.3c1.1,1.4,2.2,2.7,3.3,4l0.2,0.2
			c0.1,0.1,0.1,0.1,0.2,0.2c0.1,0.1,0.2,0.2,0.3,0.3s0.2,0.2,0.3,0.3c5.9,6.6,12.5,12.5,19.8,17.5c1,0.7,2,1.3,3,2
			c0.2,0.2,0.5,0.3,0.8,0.5c0.1,0,0.1,0.1,0.2,0.2c0.1,0.1,0.3,0.2,0.4,0.2c0.1,0.1,0.3,0.2,0.4,0.2c0.5,0.3,1.1,0.7,1.6,1
			c0.1,0.1,0.3,0.2,0.4,0.2c0.1,0.1,0.3,0.2,0.4,0.2l0,0l0,0l0,0l0,0c0.7,0.4,1.4,0.8,2,1.1c0.4,0.2,0.8,0.4,1.1,0.6
			c0.9,0.5,1.7,0.9,2.6,1.3c0.3,0.2,0.6,0.3,0.9,0.5c0.3,0.1,0.5,0.2,0.8,0.4c0.1,0,0.1,0.1,0.2,0.1c0.2,0.1,0.4,0.2,0.6,0.3
			c0.2,0.1,0.5,0.2,0.7,0.3c0.3,0.1,0.5,0.2,0.8,0.3c1,0.5,2,0.9,3,1.3c3.6,1.5,7.3,2.8,11.1,3.8c0.2,0,0.3,0.1,0.5,0.2
			c1.6,0.4,3.2,0.9,4.9,1.2c2.9,0.7,5.7,1.2,8.6,1.6l0,0c0.3,0,0.7,0.1,1,0.2h0.1l0,0c0.4,0,0.8,0.1,1.1,0.2h0.1
			c0.4,0,0.7,0.1,1.1,0.1s0.8,0.1,1.2,0.1c0.3,0,0.6,0.1,0.9,0.1h0.1c0.3,0,0.5,0,0.8,0.1l0,0c0.2,0,0.5,0,0.7,0.1
			c2.8,0.2,5.6,0.3,8.4,0.3c3.1,0,6.1-0.1,9.1-0.4l0,0c0.6-0.1,1.3-0.1,1.9-0.2c0.2,0,0.3,0,0.5,0h0.1c0,0,0.1,0,0.2,0h0.1
			c0.2,0,0.4,0,0.7-0.1l0.8-0.1c0.2,0,0.5-0.1,0.8-0.1c0.1,0,0.1,0,0.2,0c0.2,0,0.4,0,0.5-0.1c0.1,0,0.2,0,0.3,0
			c0.2,0,0.3,0,0.5-0.1l0,0c5.5-0.8,10.9-2,16.2-3.7c0.3-0.1,0.6-0.2,0.8-0.3l0,0c0.1,0,0.2,0,0.2-0.1c0.8-0.2,1.5-0.5,2.2-0.8
			c1-0.3,2-0.7,3-1.1c0.3-0.1,0.5-0.2,0.8-0.3c0.5-0.2,1.1-0.4,1.6-0.7c0.9-0.4,1.8-0.8,2.8-1.2c0.8-0.4,1.7-0.8,2.5-1.2
			c0,0,0,0,0.1,0c0.2-0.1,0.4-0.2,0.6-0.3l0,0c4.6-2.2,9-4.7,13.3-7.6c1.4-0.9,2.7-1.8,4-2.8c1.1-0.8,2.1-1.6,3.1-2.4
			c5.1-4.1,9.9-8.6,14.2-13.6l0,0c0.3-0.3,0.6-0.7,0.9-1l0.1-0.1c0.2-0.2,0.4-0.5,0.6-0.7l0,0c0.2-0.3,0.5-0.6,0.7-0.9
			c0.1-0.1,0.1-0.1,0.2-0.2l0,0c0.2-0.2,0.4-0.5,0.6-0.7c0.1-0.1,0.2-0.2,0.3-0.4l0,0c0.6-0.7,1.2-1.5,1.7-2.2
			c0.2-0.2,0.3-0.4,0.5-0.6c0.7-1,1.4-2,2.1-3l0,0c0.3-0.4,0.5-0.8,0.8-1.1c0.2-0.4,0.5-0.8,0.8-1.1c0.2-0.4,0.5-0.8,0.8-1.2v-0.1
			c0.2-0.4,0.5-0.8,0.7-1.2c0.2-0.3,0.4-0.6,0.6-0.9c0.1-0.2,0.2-0.4,0.4-0.6c0-0.1,0.1-0.1,0.1-0.2c0.3-0.5,0.6-1,0.8-1.5
			c0.3-0.6,0.7-1.2,1-1.7c0.1-0.2,0.2-0.5,0.4-0.7c0-0.1,0.1-0.2,0.1-0.2c0.2-0.3,0.3-0.6,0.4-0.9c0.2-0.3,0.3-0.6,0.5-0.9
			c0.1-0.3,0.3-0.6,0.4-0.9c0.1-0.2,0.2-0.4,0.3-0.7l0,0c0-0.1,0.1-0.2,0.1-0.3l0,0c0.1-0.2,0.2-0.5,0.3-0.7
			c0.1-0.3,0.3-0.6,0.4-0.9c0.1-0.2,0.2-0.4,0.3-0.6c0.1-0.3,0.3-0.6,0.4-0.9c0.1-0.3,0.3-0.6,0.4-0.9c0-0.1,0.1-0.2,0.1-0.2
			c0.1-0.1,0.1-0.3,0.2-0.4c0.2-0.4,0.3-0.8,0.5-1.1c0.2-0.4,0.3-0.8,0.5-1.3c0.2-0.4,0.3-0.8,0.5-1.2l0.1-0.1
			c2.3-6.1,4.1-12.5,5.3-18.9l0,0c0.7-3.7,1.1-7.4,1.4-11.1c0-0.2,0-0.4,0-0.6c0.2-2.5,0.3-5.1,0.3-7.6c0-1.1,0-2.2,0-3.4
			c-0.7-23.4-9.1-46-23.8-64.2c-0.3-0.4-0.6-0.8-1-1.2c-0.3-0.4-0.7-0.8-1-1.2c-38.6-45.3-106.7-50.6-151.9-12
			c-8.2,7-15.4,15.3-21.1,24.4c-0.5,0.8-1,1.6-1.5,2.4s-0.9,1.6-1.4,2.4C185.5,485.5,180.8,503.7,180.8,522.1z"
            />
            <path
              class="st2"
              d="M284.3,451.7c17.7,4.5,35.9,7.2,54.1,7.8c2.8,0.2,5.5,0.1,8.3-0.1c6.1-0.5,11.3-2.4,17.1-3.5
			c2.8-0.5,5.9-0.9,8.7-1.4c-0.6-0.8-1.3-1.6-2-2.4c-6,0.5-12.2,2.2-18.3,3c-10.4,1.3-22-0.2-29.9-3.8c-3.8-1.8-6.8-4-10.6-5.7
			c-0.5-0.3-1.1-0.4-1.7-0.5c-1.1,0-2.2,0.2-3.1,0.8c-6.4,3.2-15.7,5.8-24.3,4.4C282,450.8,283.2,451.4,284.3,451.7z"
            />
            <path
              class="st2"
              d="M194.6,469.4c3.6,0.3,7.2,0.5,10.8,0.6c2.8,0.1,5.5,0.1,8.3-0.1c6.1-0.5,11.3-2.4,17.1-3.5
			c5.3-1,11.8-1.4,15.1-3.5c-8.7-1.5-17.7,1.6-26.7,2.7c-7.3,0.9-14.6,0.5-21.8-1.1C196.5,466.2,195.5,467.8,194.6,469.4z"
            />
            <path
              class="st6"
              d="M238.1,617.4c0.9,0.5,1.7,0.9,2.6,1.3c0.3,0.2,0.6,0.3,0.9,0.5c0.3,0.1,0.5,0.2,0.8,0.4
			c0.1,0,0.1,0.1,0.2,0.1c0.2,0.1,0.4,0.2,0.6,0.3c0.2,0.1,0.5,0.2,0.7,0.3c0.3,0.1,0.5,0.2,0.8,0.3c1,0.5,2,0.9,3,1.3
			c3.6,1.5,7.3,2.8,11.1,3.8c0.2,0,0.3,0.1,0.5,0.2c1.6,0.4,3.2,0.9,4.9,1.2c2.9,0.7,5.7,1.2,8.6,1.6l0,0c0.3,0,0.7,0.1,1,0.2h0.1
			l0,0c0.4,0,0.8,0.1,1.1,0.2h0.1c0.4,0,0.7,0.1,1.1,0.1s0.8,0.1,1.2,0.1c0.3,0,0.6,0.1,0.9,0.1h0.1c0.3,0,0.5,0,0.8,0.1l0,0
			c0.2,0,0.5,0,0.7,0.1c2.8,0.2,5.6,0.3,8.4,0.3c3.1,0,6.1-0.1,9.1-0.4l0,0c0.6-0.1,1.3-0.1,1.9-0.2c0.2,0,0.3,0,0.5,0h0.1
			c0,0,0.1,0,0.2,0h0.1c0.2,0,0.4,0,0.7-0.1l0.8-0.1c0.2,0,0.5-0.1,0.8-0.1c0.1,0,0.1,0,0.2,0c0.2,0,0.4,0,0.5-0.1
			c0.1,0,0.2,0,0.3,0c0.2,0,0.3,0,0.5-0.1l0,0c5.5-0.8,10.9-2,16.2-3.7c0.3-0.1,0.6-0.2,0.8-0.3c-2.6-12.2-10.8-22.5-22-27.9
			c1.4-1.3,2.3-3,2.7-4.9c0.5-2.4,0.1-4.9-1.3-7c-1.3-2-3.3-3.4-5.7-3.9l-14.8-3.1c-5-1-9.8,2.2-10.8,7.2c-0.2,0.7-0.2,1.5-0.2,2.2
			C254.9,597,244.6,606.9,238.1,617.4z"
            />
            <circle class="st7" cx="281.9" cy="541.4" r="30.9" />
            <path
              class="svg-hair"
              d="M262.6,568c-3.3-2.2-6.7-6.6-8.9-9.8c-6-8.6-8.1-19.4-5.7-29.6c0.4-2,1.3-3.9,2.7-5.4
			c1.5-1.4,3.8-2.1,5.6-1.1c-1-2.6-0.8-5.5,0.4-8c1.2-2.5,3.1-4.6,5.3-6.3c8.7-6.7,20.3-8.1,30.3-3.6c1.9,0.9-1.2-6,0.8-5.3
			c2,0.8,4.2,0.7,6.2-0.1c1.9-1,8.2,4.7,7.5,2.7c4.7,2.1,6.8,7.7,4.7,12.4c-0.6,1.3-1.4,2.4-2.5,3.3c-1.6,1.3-3.6,2.1-5.3,3.3
			c-6.3,4.5-8.3,12.9-4.7,19.7c-1.8-1.2-3.8-2.1-6-2.6s-4.4,0-6.1,1.5c-1.4,1.6-2.1,3.7-1.9,5.8c0.1,2.1,0.6,4.2,0.6,6.3
			c0.2,6.1,3.5,17.8-1.3,21.1C280.5,574.8,267.1,571.1,262.6,568z"
            />
          </g>
          <path
            class="st1"
            d="M780.4,286.1c0,2.4-0.1,4.9-0.2,7.3c-0.2,2.9-0.5,5.7-0.9,8.6c-1.4,9.6-4.1,18.9-8,27.7
	    c-0.2,0.4-0.4,0.9-0.6,1.3l-0.3,0.7c-0.1,0.2-0.2,0.4-0.3,0.6c-0.1,0.3-0.3,0.6-0.4,0.9c-0.2,0.4-0.3,0.7-0.5,1c0,0,0,0.1-0.1,0.1
	    c-0.2,0.3-0.3,0.6-0.5,0.9c0,0.1-0.1,0.1-0.1,0.2c-0.2,0.3-0.3,0.7-0.5,1c-0.2,0.4-0.4,0.7-0.6,1.1c-0.5,0.9-1,1.8-1.5,2.6
	    c-0.2,0.3-0.3,0.5-0.5,0.8c-0.1,0.2-0.3,0.5-0.4,0.7c-0.1,0.2-0.2,0.3-0.3,0.5c-0.2,0.3-0.3,0.5-0.5,0.8c-0.4,0.6-0.8,1.2-1.1,1.8
	    l0,0c-0.2,0.3-0.3,0.5-0.5,0.8l0,0c-0.5,0.8-1.1,1.6-1.6,2.4l0,0l0,0c-0.4,0.6-0.9,1.3-1.3,1.9l0,0c-0.3,0.4-0.6,0.8-0.9,1.2
	    c-0.2,0.3-0.5,0.6-0.7,1c0,0.1-0.1,0.1-0.2,0.2l0,0c-0.1,0.1-0.1,0.2-0.2,0.3c-1.1,1.4-2.2,2.7-3.3,4l-0.2,0.2
	    c-0.1,0.1-0.1,0.1-0.2,0.2c-0.1,0.1-0.2,0.2-0.3,0.3c-0.1,0.1-0.2,0.2-0.3,0.3c-5.9,6.6-12.5,12.5-19.8,17.5c-1,0.7-2,1.3-3,1.9
	    c-0.2,0.2-0.5,0.3-0.8,0.5c-0.1,0-0.2,0.1-0.2,0.2c-0.1,0.1-0.3,0.2-0.4,0.2c-0.1,0.1-0.3,0.2-0.4,0.2c-0.5,0.3-1.1,0.7-1.6,1
	    c-0.1,0.1-0.3,0.2-0.4,0.2c-0.1,0.1-0.3,0.2-0.4,0.2l0,0l0,0l0,0l0,0c-0.7,0.4-1.4,0.8-2,1.1c-0.4,0.2-0.8,0.4-1.1,0.6
	    c-0.9,0.5-1.7,0.9-2.6,1.3c-0.3,0.2-0.6,0.3-0.9,0.5c-0.3,0.1-0.5,0.2-0.8,0.4c-0.1,0-0.2,0.1-0.2,0.1c-0.2,0.1-0.4,0.2-0.7,0.3
	    c-0.2,0.1-0.5,0.2-0.7,0.3c-0.3,0.1-0.5,0.2-0.8,0.3c-1,0.5-2,0.9-3,1.3c-3.6,1.5-7.3,2.8-11.1,3.8c-0.2,0-0.3,0.1-0.5,0.2
	    c-1.6,0.5-3.2,0.9-4.9,1.2c-2.8,0.7-5.7,1.2-8.6,1.6l0,0c-0.3,0-0.7,0.1-1,0.2h-0.1l0,0c-0.4,0-0.8,0.1-1.2,0.2h-0.1
	    c-0.4,0-0.7,0.1-1.1,0.1c-0.4,0-0.8,0.1-1.2,0.1c-0.3,0-0.6,0.1-0.9,0.1h-0.1c-0.3,0-0.5,0-0.8,0.1l0,0c-0.2,0-0.5,0-0.7,0.1
	    c-2.8,0.2-5.6,0.3-8.4,0.3c-3.1,0-6.1-0.1-9.1-0.4l0,0c-0.7-0.1-1.3-0.1-1.9-0.2c-0.2,0-0.3,0-0.5,0h-0.1c0,0-0.1,0-0.2,0H661
	    c-0.2,0-0.4,0-0.7-0.1l-0.8-0.1c-0.2,0-0.5-0.1-0.8-0.1c-0.1,0-0.1,0-0.2,0c-0.2,0-0.4,0-0.5-0.1c-0.1,0-0.2,0-0.3,0
	    c-0.2,0-0.3,0-0.5-0.1l0,0c-5.5-0.8-10.9-2-16.2-3.7c-0.3-0.1-0.6-0.2-0.8-0.3l0,0c-0.1,0-0.2,0-0.2-0.1c-0.8-0.2-1.5-0.5-2.2-0.8
	    c-1-0.3-2-0.7-3-1.1c-0.3-0.1-0.5-0.2-0.8-0.3c-0.5-0.2-1.1-0.4-1.6-0.7c-0.9-0.4-1.8-0.8-2.8-1.2c-0.8-0.4-1.7-0.8-2.5-1.2
	    c0,0,0,0-0.1,0c-0.2-0.1-0.4-0.2-0.6-0.3l0,0c-4.6-2.2-9-4.7-13.3-7.6c-1.4-0.9-2.7-1.8-4-2.8c-1.1-0.8-2.1-1.6-3.1-2.4
	    c-5.1-4.1-9.9-8.6-14.2-13.6l0,0c-0.3-0.3-0.6-0.7-0.9-1l-0.1-0.1c-0.2-0.2-0.4-0.5-0.6-0.7l0,0c-0.2-0.3-0.5-0.6-0.7-0.9
	    c-0.1-0.1-0.1-0.1-0.2-0.2l0,0c-0.2-0.2-0.4-0.5-0.6-0.7c-0.1-0.1-0.2-0.2-0.3-0.4l0,0c-0.6-0.7-1.2-1.5-1.7-2.2
	    c-0.2-0.2-0.3-0.4-0.5-0.6c-0.7-1-1.4-2-2.1-3l0,0c-0.3-0.4-0.5-0.8-0.8-1.1c-0.2-0.4-0.5-0.8-0.8-1.1c-0.2-0.4-0.5-0.8-0.8-1.2
	    v-0.1c-0.2-0.4-0.5-0.8-0.7-1.2c-0.2-0.3-0.4-0.6-0.6-0.9c-0.1-0.2-0.2-0.4-0.4-0.6c0-0.1-0.1-0.1-0.1-0.2c-0.3-0.5-0.6-1-0.8-1.5
	    c-0.3-0.6-0.7-1.1-1-1.7c-0.1-0.2-0.2-0.5-0.4-0.7c0-0.1-0.1-0.2-0.1-0.2c-0.2-0.3-0.3-0.6-0.4-0.9c-0.2-0.3-0.3-0.6-0.5-0.9
	    c-0.1-0.3-0.3-0.6-0.4-0.9c-0.1-0.2-0.2-0.4-0.3-0.7l0,0c0-0.1-0.1-0.2-0.1-0.3l0,0c-0.1-0.2-0.2-0.5-0.3-0.7
	    c-0.1-0.3-0.3-0.6-0.4-0.9c-0.1-0.2-0.2-0.4-0.3-0.6c-0.1-0.3-0.3-0.6-0.4-0.9c-0.1-0.3-0.3-0.6-0.4-0.9c0-0.1-0.1-0.2-0.1-0.2
	    c-0.1-0.1-0.1-0.3-0.2-0.4c-0.2-0.4-0.3-0.8-0.5-1.1c-0.2-0.4-0.3-0.9-0.5-1.3s-0.3-0.8-0.5-1.2l-0.1-0.1
	    c-2.3-6.1-4.1-12.5-5.3-18.9l0,0c-0.7-3.7-1.1-7.4-1.4-11.1c0-0.2,0-0.4,0-0.6c-0.2-2.5-0.3-5.1-0.3-7.6c0-1.1,0-2.2,0-3.4
	    c0.7-23.4,9.1-46,23.8-64.2c0.3-0.4,0.6-0.8,1-1.2c0.3-0.4,0.7-0.8,1-1.2c38.6-45.3,106.7-50.6,151.9-12
	    c8.2,7,15.4,15.3,21.1,24.4c0.5,0.8,1,1.6,1.5,2.4c0.5,0.8,0.9,1.6,1.4,2.4C775.7,249.5,780.4,267.7,780.4,286.1z"
          />
          <path
            class="st2"
            d="M676.9,215.7c-17.7,4.5-35.9,7.2-54.1,7.8c-2.8,0.2-5.5,0.1-8.3-0.1c-6.1-0.5-11.3-2.4-17.1-3.5
	    c-2.8-0.5-5.9-0.9-8.7-1.4c0.6-0.8,1.3-1.6,2-2.4c6,0.5,12.2,2.2,18.3,3c10.4,1.3,22-0.2,29.9-3.8c3.8-1.8,6.8-4,10.6-5.7
	    c0.5-0.3,1.1-0.4,1.7-0.5c1.1,0,2.2,0.2,3.1,0.8c6.4,3.2,15.7,5.8,24.3,4.4C679.2,214.8,678,215.4,676.9,215.7z"
          />
          <path
            class="st2"
            d="M766.6,233.4c-3.6,0.3-7.2,0.5-10.8,0.6c-2.8,0.1-5.5,0.1-8.3-0.1c-6.1-0.5-11.3-2.4-17.1-3.5
	    c-5.3-1-11.8-1.4-15.1-3.5c8.7-1.5,17.7,1.6,26.7,2.7c7.3,0.9,14.6,0.5,21.8-1.1C764.7,230.2,765.7,231.8,766.6,233.4z"
          />

   

          <g
            id="svg-enfant"
            class="tw-cursor-pointer"
            routerLink="/dashboard/questionnaire/E"
          >
            <path
              class="st1"
              d="M82.8,219.1c0,2.4,0.1,4.9,0.2,7.3c0.2,2.9,0.5,5.7,0.9,8.6c1.4,9.6,4.1,18.9,8,27.7c0.2,0.4,0.4,0.9,0.6,1.3
			l0.3,0.7c0.1,0.2,0.2,0.4,0.3,0.6c0.1,0.3,0.3,0.6,0.4,0.9c0.2,0.4,0.3,0.7,0.5,1c0,0,0,0.1,0.1,0.1c0.1,0.3,0.3,0.6,0.5,0.9
			c0,0.1,0.1,0.1,0.1,0.2c0.2,0.3,0.4,0.7,0.5,1c0.2,0.4,0.4,0.7,0.6,1.1c0.5,0.9,1,1.8,1.5,2.6c0.1,0.3,0.3,0.5,0.5,0.8
			c0.1,0.2,0.3,0.5,0.4,0.7s0.2,0.3,0.3,0.5c0.2,0.3,0.3,0.5,0.5,0.8c0.4,0.6,0.8,1.2,1.1,1.8l0,0c0.2,0.3,0.4,0.5,0.5,0.8l0,0
			c0.5,0.8,1.1,1.6,1.6,2.4l0,0l0,0c0.4,0.6,0.9,1.3,1.4,1.9l0,0c0.3,0.4,0.6,0.8,0.9,1.2c0.2,0.3,0.5,0.6,0.7,1
			c0,0.1,0.1,0.1,0.2,0.2l0,0c0.1,0.1,0.1,0.2,0.2,0.3c1.1,1.4,2.2,2.7,3.3,4l0.2,0.2c0.1,0.1,0.1,0.1,0.2,0.2s0.2,0.2,0.3,0.3
			c0.1,0.1,0.2,0.2,0.3,0.3c5.9,6.6,12.5,12.5,19.8,17.5c1,0.7,2,1.3,3,2c0.2,0.2,0.5,0.3,0.8,0.5c0.1,0,0.1,0.1,0.2,0.1
			c0.1,0.1,0.3,0.2,0.4,0.2c0.1,0.1,0.3,0.2,0.4,0.2c0.5,0.3,1.1,0.6,1.6,1c0.1,0.1,0.3,0.2,0.4,0.2c0.1,0.1,0.3,0.1,0.4,0.2l0,0
			l0,0l0,0l0,0c0.7,0.4,1.4,0.8,2,1.1c0.4,0.2,0.8,0.4,1.1,0.6c0.9,0.5,1.7,0.9,2.6,1.4c0.3,0.1,0.6,0.3,0.9,0.5
			c0.3,0.1,0.5,0.2,0.8,0.4c0.1,0,0.1,0.1,0.2,0.1c0.2,0.1,0.4,0.2,0.6,0.3c0.2,0.1,0.5,0.2,0.7,0.3c0.3,0.1,0.5,0.2,0.8,0.4
			c1,0.5,2,0.9,3,1.3c3.6,1.5,7.3,2.8,11.1,3.8c0.2,0,0.4,0.1,0.5,0.1c1.6,0.4,3.2,0.9,4.9,1.2c2.9,0.7,5.7,1.2,8.6,1.6l0,0
			c0.4,0,0.7,0.1,1,0.1h0.1l0,0c0.4,0,0.8,0.1,1.1,0.1h0.1c0.4,0,0.7,0.1,1.1,0.1c0.4,0,0.8,0.1,1.2,0.1c0.3,0,0.6,0.1,0.9,0.1h0.1
			c0.3,0,0.5,0,0.8,0.1l0,0c0.2,0,0.5,0,0.7,0.1c2.8,0.2,5.6,0.3,8.4,0.3c3.1,0,6.1-0.1,9.1-0.4l0,0c0.6-0.1,1.3-0.1,1.9-0.2
			c0.2,0,0.3,0,0.5,0h0.1c0,0,0.1,0,0.2,0h0.1c0.2,0,0.4,0,0.7-0.1l0.8-0.1c0.2,0,0.5-0.1,0.8-0.1c0.1,0,0.1,0,0.2,0
			c0.2,0,0.4,0,0.5-0.1c0.1,0,0.2,0,0.3,0c0.2,0,0.4,0,0.5-0.1l0,0c5.5-0.8,10.9-2,16.2-3.6c0.3-0.1,0.6-0.2,0.8-0.3l0,0
			c0.1,0,0.2,0,0.2-0.1c0.8-0.2,1.5-0.5,2.2-0.8c1-0.3,2-0.7,3-1.1c0.3-0.1,0.5-0.2,0.8-0.3c0.5-0.2,1.1-0.4,1.6-0.6
			c0.9-0.4,1.8-0.8,2.8-1.2c0.9-0.4,1.7-0.8,2.5-1.2c0,0,0,0,0.1,0c0.2-0.1,0.4-0.2,0.6-0.3l0,0c4.6-2.2,9-4.7,13.3-7.6
			c1.4-0.9,2.7-1.9,4-2.8c1.1-0.8,2.1-1.6,3.1-2.4c5.1-4.1,9.9-8.6,14.2-13.6l0,0c0.3-0.3,0.6-0.7,0.9-1l0.1-0.1
			c0.2-0.2,0.4-0.5,0.6-0.7l0,0c0.2-0.3,0.5-0.6,0.7-0.9c0.1-0.1,0.1-0.1,0.2-0.2l0,0c0.2-0.2,0.4-0.5,0.6-0.7
			c0.1-0.1,0.2-0.2,0.3-0.4l0,0c0.6-0.7,1.2-1.5,1.7-2.2c0.2-0.2,0.3-0.4,0.5-0.6c0.7-1,1.4-2,2.1-3l0,0c0.3-0.4,0.5-0.8,0.8-1.1
			c0.2-0.4,0.5-0.8,0.8-1.1c0.2-0.4,0.5-0.8,0.8-1.2v-0.1c0.2-0.4,0.5-0.8,0.7-1.2c0.2-0.3,0.4-0.6,0.6-0.9c0.1-0.2,0.2-0.4,0.4-0.6
			c0-0.1,0.1-0.1,0.1-0.2c0.3-0.5,0.6-1,0.8-1.5c0.3-0.6,0.6-1.1,1-1.7c0.1-0.2,0.2-0.5,0.4-0.7c0-0.1,0.1-0.2,0.1-0.2
			c0.2-0.3,0.3-0.6,0.4-0.9c0.2-0.3,0.3-0.6,0.5-0.9c0.1-0.3,0.3-0.6,0.4-0.9c0.1-0.2,0.2-0.4,0.3-0.7l0,0c0-0.1,0.1-0.2,0.1-0.3
			l0,0c0.1-0.2,0.2-0.5,0.3-0.7c0.1-0.3,0.3-0.6,0.4-0.9c0.1-0.2,0.2-0.4,0.3-0.6c0.1-0.3,0.3-0.6,0.4-0.9s0.3-0.6,0.4-0.9
			c0-0.1,0.1-0.2,0.1-0.2c0.1-0.1,0.1-0.3,0.2-0.4c0.2-0.4,0.3-0.8,0.5-1.1c0.2-0.4,0.3-0.9,0.5-1.3s0.3-0.8,0.5-1.2l0.1-0.1
			c2.3-6.1,4.1-12.5,5.3-18.9l0,0c0.7-3.7,1.1-7.4,1.4-11.1c0-0.2,0-0.4,0-0.6c0.2-2.5,0.3-5.1,0.3-7.6c0-1.1,0-2.2,0-3.4
			c-0.7-23.4-9.1-46-23.8-64.2c-0.3-0.4-0.6-0.8-1-1.2c-0.3-0.4-0.7-0.8-1-1.2c-38.6-45.3-106.7-50.6-151.9-12
			c-8.2,7-15.4,15.3-21.1,24.4c-0.5,0.8-1,1.6-1.5,2.4c-0.5,0.8-0.9,1.6-1.4,2.4C87.5,182.5,82.8,200.7,82.8,219.1z"
            />
            <path
              class="st2"
              d="M186.3,148.7c17.7,4.5,35.9,7.2,54.1,7.8c2.8,0.2,5.5,0.1,8.3-0.1c6.1-0.5,11.3-2.4,17.1-3.5
			c2.8-0.5,5.9-0.9,8.7-1.4c-0.6-0.8-1.3-1.6-2-2.4c-6,0.5-12.2,2.2-18.3,3c-10.4,1.3-22-0.2-29.9-3.8c-3.8-1.8-6.8-4-10.6-5.7
			c-0.5-0.3-1.1-0.4-1.7-0.5c-1.1,0-2.2,0.2-3.1,0.8c-6.4,3.2-15.7,5.8-24.3,4.4C184,147.8,185.2,148.4,186.3,148.7z"
            />
            <path
              class="st2"
              d="M96.6,166.4c3.6,0.3,7.2,0.5,10.8,0.6c2.8,0.1,5.5,0.1,8.3-0.1c6.1-0.5,11.3-2.4,17.1-3.5
			c5.3-1,11.8-1.4,15.1-3.5c-8.7-1.5-17.7,1.6-26.7,2.7c-7.3,0.9-14.6,0.5-21.8-1.1C98.5,163.2,97.5,164.8,96.6,166.4z"
            />
           
          </g>

          <g
            id="svg-nouveau-conjoint"
  
            class="tw-cursor-pointer"
          >
            <g class="st0" transform="translate(480,500)">
              <!-- background -->
              <path
                class="st1"
                d="M239.2,124.9c0,62.7-50.8,113.4-113.4,113.4S12.3,187.6,12.3,124.9S63.1,11.5,125.8,11.5   c62.4-0.3,113.2,50.1,113.4,112.4C239.2,124.3,239.2,124.6,239.2,124.9z"
              />
              <path
                class="svg-hair"
                d="M172.2,97.8L172.2,97.8l-0.6,1c5-12.3,0.5-27.5-8.5-36.8c-8.9-9.3-21.3-13.5-33.5-15.2   c-9.1-1.2-18.5-1.2-27.1,2.1c-12.5,4.8-22,15.9-30,27.5c-3.6,5.3-7.2,11.3-6.9,17.9c0.3,6.1,4,11.3,7,16.6c3,5.2,5.5,11.7,3.3,17.4   c-1.3,3.4-4,5.8-6.2,8.6s-4,6.5-2.9,10c1,2.7,3.3,4.7,6.1,5.3c2.6,0.6,5.4,0.2,8.1-0.2l69.5-10.5c16.2-2.4,27.3-17.5,24.9-33.7   C175,104.2,173.9,100.9,172.2,97.8z"
              />
              <!-- visage -->
              <ellipse
                style="fill: #ffb6b6"
                class="st3"
                cx="120.4"
                cy="107"
                rx="34"
                ry="34"
              />
              <!-- chandail -->
              <path
                style="fill: #98c1bd !important"
                class="st4"
                d="M210.9,199.8C170,246.4,99.4,251.5,52.2,211.3l9.7-27.2c4.5-9.8,14-16.4,24.8-17l6.2-0.4l14.8-12.7   c0,0,39.8-1.4,39.2-2.1l24.1,14.5v-0.1l9.5,0.6c10.8,0.7,20.3,7.2,24.8,17L210.9,199.8z"
              />
              <path
                class="svg-hair"
                d="M152.7,75.4c-0.9-4.6-5.6-6.8-9.7-7.8c-11.8-3-24-3.7-36-2c-8.8,1.3-17.7,4-24.1,10.9   c-5.1,5.8-8,13.2-8.2,20.9c-0.3,4.6,0.8,9.2,3,13.3c2.3,3.9,6.2,6.7,10.2,6.6l0.4,1.4c17.1-2.4,32.9-13,42.9-28.7   c-1.9,6.7-5.6,12.7-10.8,17.4c11.5-4.6,21.5-12.3,28.9-22.3C151.4,82.3,153.3,78.9,152.7,75.4z"
              />
            </g>

            <path
              class="st2"
              d="M608,547.7c17.7,4.5,35.9,7.2,54.1,7.8c2.8,0.2,5.5,0.1,8.3-0.1c6.1-0.5,11.3-2.4,17.1-3.5
			c2.8-0.5,5.9-0.9,8.7-1.4c-0.6-0.8-1.3-1.6-2-2.4c-6,0.5-12.2,2.2-18.3,3c-10.4,1.3-22-0.2-29.9-3.8c-3.8-1.8-6.8-4-10.6-5.7
			c-0.5-0.3-1.1-0.4-1.7-0.5c-1.1,0-2.2,0.2-3.1,0.8c-6.4,3.2-15.7,5.8-24.3,4.4C605.7,546.9,606.9,547.4,608,547.7z"
            />
            <path
              class="st2"
              d="M518.3,565.4c3.6,0.3,7.2,0.5,10.8,0.6c2.8,0.1,5.5,0.1,8.3-0.1c6.1-0.5,11.3-2.4,17.1-3.5
			c5.3-1,11.8-1.4,15.1-3.5c-8.7-1.5-17.7,1.6-26.7,2.7c-7.3,0.9-14.6,0.5-21.8-1.1C520.2,562.2,519.2,563.8,518.3,565.4z"
            />
          </g>
        </g>
      </svg>