<?xml version="1.0" encoding="utf-8"?>
<!-- Generator: Adobe Illustrator 26.5.0, SVG Export Plug-In . SVG Version: 6.00 Build 0)  -->
<svg version="1.1" id="Layer_1" xmlns="http://www.w3.org/2000/svg" xmlns:xlink="http://www.w3.org/1999/xlink" x="0px" y="0px"
	 viewBox="0 0 249.9 244.4" style="enable-background:new 0 0 249.9 244.4;" xml:space="preserve">
<style type="text/css">
	.st0{display:none;}
	.st1{display:inline;fill:#e1f0ff;}
	.st2{display:inline;fill:#2F2E41;}
	.st3{display:inline;fill:#FFB9B9;}
	.st4{display:inline;fill:#98C1BD;}
	.st5{display:inline;fill:#9E616A;}
	.st6{fill:#e1f0ff;}
	.st7{fill:#2F2E41;}
	.st8{fill:#9E616A;}
	.st9{fill:#98C1BD;}
	.st10{display:inline;fill:#FFB8B8;}
	.st11{display:inline;fill:#FFB6B6;}
</style>
<g class="st0">
	<path class="st1" d="M239.2,124.9c0,62.7-50.8,113.4-113.4,113.4S12.3,187.6,12.3,124.9S63.1,11.5,125.8,11.5
		c62.4-0.3,113.2,50.1,113.4,112.4C239.2,124.3,239.2,124.6,239.2,124.9z"/>
	<path class="st2" d="M172.2,97.8L172.2,97.8l-0.6,1c5-12.3,0.5-27.5-8.5-36.8c-8.9-9.3-21.3-13.5-33.5-15.2
		c-9.1-1.2-18.5-1.2-27.1,2.1c-12.5,4.8-22,15.9-30,27.5c-3.6,5.3-7.2,11.3-6.9,17.9c0.3,6.1,4,11.3,7,16.6c3,5.2,5.5,11.7,3.3,17.4
		c-1.3,3.4-4,5.8-6.2,8.6s-4,6.5-2.9,10c1,2.7,3.3,4.7,6.1,5.3c2.6,0.6,5.4,0.2,8.1-0.2l69.5-10.5c16.2-2.4,27.3-17.5,24.9-33.7
		C175,104.2,173.9,100.9,172.2,97.8z"/>
	<ellipse class="st3" cx="120.4" cy="107" rx="34" ry="34"/>
	<path class="st4" d="M210.9,199.8C170,246.4,99.4,251.5,52.2,211.3l9.7-27.2c4.5-9.8,14-16.4,24.8-17l6.2-0.4l14.8-12.7
		c0,0,39.8-1.4,39.2-2.1l24.1,14.5v-0.1l9.5,0.6c10.8,0.7,20.3,7.2,24.8,17L210.9,199.8z"/>
	<path class="st2" d="M152.7,75.4c-0.9-4.6-5.6-6.8-9.7-7.8c-11.8-3-24-3.7-36-2c-8.8,1.3-17.7,4-24.1,10.9
		c-5.1,5.8-8,13.2-8.2,20.9c-0.3,4.6,0.8,9.2,3,13.3c2.3,3.9,6.2,6.7,10.2,6.6l0.4,1.4c17.1-2.4,32.9-13,42.9-28.7
		c-1.9,6.7-5.6,12.7-10.8,17.4c11.5-4.6,21.5-12.3,28.9-22.3C151.4,82.3,153.3,78.9,152.7,75.4z"/>
</g>
<g class="st0">
	<circle class="st1" cx="125.8" cy="124.4" r="113.4"/>
	<circle class="st2" cx="94.6" cy="65.8" r="16"/>
	<circle class="st2" cx="120.2" cy="102.1" r="40.6"/>
	<circle class="st5" cx="123.6" cy="109.7" r="33"/>
	<path class="st2" d="M146,76.1c-17.8-10.9-41-5.2-51.9,12.6c-3.7,6.1-5.6,13.2-5.5,20.4c16.8,4.2,34.4,7.4,52.4,1l4.2-10.4
		l2.5,10.4c5.5,2.2,10.9,4.1,16.4,0C164.5,96.4,157.6,83.4,146,76.1z"/>
	<path class="st2" d="M79.7,22.4c-11.1-5.1-25-2.7-34.2,5.3s-13.6,20.9-11.8,33C35.5,73,43,83.6,49.9,93.9s13.6,21.7,13.6,34.1
		c0,18.6-15.1,33.8-33.7,33.8c10.5,4.5,21.5,9.1,32.9,8.6s23.4-7.9,25.3-19.2c1.3-8.1-2.6-16.1-6-23.6c-5.4-12.3-9.3-25.2-11.7-38.4
		c-1.1-6.3-1.8-12.9,0.2-19C73.9,61,82.9,55,92.7,55.5l3.8-3.4C98.1,40,90.8,27.4,79.7,22.4z"/>
	<path class="st4" d="M211.1,200.3C170.2,246.9,99.6,252,52.4,211.8l9.7-27.1c4.5-9.8,14-16.4,24.8-17l6.2-0.4l14.8-12.7
		c0,0,39.8-1.4,39.2-2.1l24.1,14.5v-0.1l9.5,0.6c10.8,0.7,20.3,7.2,24.8,17L211.1,200.3z"/>
</g>
<g>
	<path class="st6" d="M12.4,124.5C12.4,62,63.1,11.3,125.6,11.4c62.7-0.1,113.6,50.6,113.6,113.2c0.1,62.6-50.6,113.5-113.2,113.6
		S12.5,187.7,12.4,125C12.4,124.8,12.4,124.7,12.4,124.5z"/>
	<path class="st7" d="M180.3,121.4c-0.8,31.7-26.5,57-58.1,57.4c-4.5,0.1-9,0.2-13.5,0.3V166l-4,13.2c-2.8,0.1-12.3,0.3-15.1,0.4
		c-14-22-9-91.5,11.3-111.7c11-11.1,32.6-18.8,47.4-13.7c14.7,5,25.4,18.8,30.1,33.7C180.3,93.8,180.6,106.8,180.3,121.4z"/>
	<circle class="st8" cx="127.5" cy="105.2" r="32.3"/>
	<path class="st7" d="M149.8,95.2l-25.7,5.9l-7.2-22l0.1,22.1l-7.2,1.8l-2.6-13.1l-1.7,14.2l-15.6,4L90.8,97
		c1.4-17,11.9-31.8,27.4-38.8l0,0l37.2,18.6L149.8,95.2z"/>
	<path class="st9" d="M47.3,184.1c4.5-9.8,14-16.3,24.8-17l9.5-0.6v0.1l24.1-14.5c-0.6,0.7,39.2,2.1,39.2,2.1l14.8,12.7l6.2,0.4
		c10.8,0.6,20.3,7.2,24.8,17l9.7,27.1c-47.2,40.1-117.8,35-158.7-11.5L47.3,184.1z"/>
</g>
<g class="st0">
	<circle class="st1" cx="125.8" cy="124.7" r="113.4"/>
	<circle class="st10" cx="130.4" cy="99.2" r="37"/>
	<path id="bd502a69-4a38-4003-a7a1-fa248c8198be-903" class="st2" d="M163,74.8c0,0,9.6-18.4-11.6-20.1c0,0-18.1-16.4-36.5-3
		c0,0-10,0-15.5,11.4c0,0-7.9-3-9.6,5c0,0-5.8,16.7,0,31.8s7.7,16.7,7.7,16.7s-4.1-18.6,19-20.3s44.3-16.2,46.3,2.3s4,10.1,4,10.1
		S185.1,82.3,163,74.8z"/>
	<path class="st4" d="M210.4,200.1c-40.9,46.5-111.6,51.6-158.7,11.5l9.7-27.1c4.5-9.8,14-16.4,24.8-17l6.2-0.4l14.8-12.7
		c0,0,39.8-1.4,39.2-2.1l24.1,14.5v-0.1l9.5,0.6c10.8,0.7,20.3,7.2,24.8,17L210.4,200.1z"/>
</g>
<g class="st0">
	<circle class="st1" cx="125.8" cy="124.7" r="113.4"/>
	<path class="st2" d="M79.4,80.4c-1.6,8.4-4.1,16.5-7.6,24.3c-20,42.3,37,28.5,57.3,28.5c22.3,0,43.6,11.7,40.3-40.3
		c-1.4-22.2-18.1-40.3-40.3-40.3C110.1,52.6,83.4,61,79.4,80.4z"/>
	<circle class="st11" cx="125.8" cy="100.4" r="32.8"/>
	<path class="st2" d="M103.5,67c17.7-10.8,40.8-5.2,51.6,12.5c3.7,6.1,5.6,13.1,5.5,20.2c-16.7,4.2-34.2,7.4-52,1l-4.2-10.3
		l-2.5,10.3c-5.4,2.2-10.9,4.1-16.3,0C85.1,87.1,92,74.3,103.5,67z"/>
	<path class="st4" d="M125.7,238.2c33.9,0,64.3-14.9,85.1-38.4l-5.6-15.5c-4.5-9.8-14-16.4-24.8-17l-9.5-0.6v0.1l-24.1-14.5
		c0.6,0.7-39.2,2.1-39.2,2.1l-14.8,12.7l-6.2,0.4c-10.8,0.7-20.3,7.2-24.8,17l-9.6,26.8C72.1,228.1,97.7,238.2,125.7,238.2z"/>
</g>
<g class="st0">
	<circle class="st1" cx="125.8" cy="124.4" r="113.4"/>
	<circle class="st11" cx="122.6" cy="102.3" r="36.2"/>
	<path class="st4" d="M210.9,200.3C170,246.9,99.3,252,52.2,211.8l9.7-27.1c4.5-9.8,14-16.4,24.8-17l6.2-0.4l14.8-12.7
		c0,0,39.8-1.4,39.2-2.1L171,167v-0.1l9.5,0.6c10.8,0.7,20.3,7.2,24.8,17L210.9,200.3z"/>
	<path class="st2" d="M160.8,79.8c-3.1-11-10-20.4-19.6-26.6c-7.6-4.9-17.1-7.3-25.7-4.8s-15.7,11-15.2,20.2
		c-3.1-1.1-6.6,0.3-8.9,2.8c-2.3,2.4-3.5,5.6-4.4,8.9c-2.8,10.2-2.6,21.1,0.5,31.2l-0.2,1.5c4.2-0.7,7.4-4.3,9.4-8.1
		s3.1-8.1,5.3-11.8c2.1-3.7,5.7-7.1,10-7.2l-0.4,6.5c3.7-1.9,7.3-3.8,11-5.7c-0.9,2.1-1.7,4.2-2.6,6.2c3.2-1.3,6.4-2.7,9.6-4
		c-0.4,2-0.7,4-1.1,6c3.2-7.2,13-10.4,19.6-6.4c3.9,2.3,6.4,6.5,7.8,10.9s1.6,9,1.9,13.6C162.8,102.6,163.8,90.8,160.8,79.8z"/>
</g>
<g class="st0">
	<circle class="st1" cx="125.8" cy="124.9" r="113.4"/>
	<circle id="bf829f4c-57e2-46a5-971d-584c2690be65" class="st5" cx="123.3" cy="102.3" r="34.4"/>
	<path class="st4" d="M209.4,199.8c-40.9,46.5-111.6,51.6-158.7,11.5l9.7-27.2c4.5-9.8,14-16.4,24.8-17l6.2-0.4l14.8-12.7
		c0,0,39.8-1.4,39.2-2.1l24.1,14.5v-0.1l9.5,0.6c10.8,0.7,20.3,7.2,24.8,17L209.4,199.8z"/>
	<path class="st2" d="M164.5,90c-0.4-7.1-3.7-13.6-9.2-18.1c-2-1.6-4.3-2.9-5.7-5.1c-0.8-1.5-1.4-3.1-1.9-4.8
		c-2.6-6.3-10.2-9.6-16.9-8.7c-6.8,1-12.6,5.5-16.5,11.1c-5.6-2.7-12.3-0.3-15,5.3c-1.2,2.4-1.4,5.2-0.7,7.8
		c-3.5-2.8-9.2-0.6-11.3,3.4c-2.2,3.9-1.8,8.7-1.2,13.2c1.2,8,3.1,15.9,5.8,23.6c3.4-3,3.2-8.5,2.8-13.1c-0.4-4.8-0.2-10.7,4-13
		c4.1-2.3,9,0.2,13.4,1.5c7.1,2,14.8,0.8,21-3.3c2.3-1.6,4.4-3.5,6.9-4.8s5.7-1.7,8-0.1c2.1,1.4,3,4.1,3.7,6.5
		c1.7,5.8,3.4,11.7,5.2,17.5C162,103.9,164.8,97.1,164.5,90z"/>
</g>
<g class="st0">
	<circle class="st1" cx="125.8" cy="124.9" r="113.4"/>
	<circle class="st2" cx="126.8" cy="84.4" r="45.2"/>
	<ellipse class="st10" cx="126.8" cy="95.2" rx="40.4" ry="40.4"/>
	<path class="st4" d="M210.6,199.5C169.7,246,99,251.1,51.8,210.9l9.7-27.1c4.5-9.8,14-16.4,24.8-17l6.2-0.4l14.8-12.7
		c0,0,39.8-1.4,39.2-2.1l24.1,14.5V166l9.5,0.6c10.8,0.7,20.3,7.2,24.8,17L210.6,199.5z"/>
	<path class="st2" d="M169.4,81c0.3-3,0.4-6,0.4-9.1c0.2-6-0.9-12-3.2-17.5c-2.8-6.1-7.8-11-14.1-13.6c-6.2-2.5-13.1-2.5-19.2,0
		c-5.6-3.5-11.8-6.3-18.3-6.7c-6.5-0.3-13.4,2.1-17.4,7.4c-0.9,1.4-1.9,2.7-3,4c-3.2,3-8.1,2.6-12.4,1.9c1.9,1.6,3.9,3.3,5.8,4.9
		c-2.3,0.6-4.7,1.2-7,1.8c2.7,1.6,5.4,3.3,8.2,4.9c-8,5-11.6,15.3-10.7,24.7c0.9,8.9,5.2,17,10.3,24.2c2-4.3,1.6-9.5,1.6-14.4
		c0-1.6,0.1-3.2,0.3-4.7c17.3,4.2,35.5,6.8,53.8,0.2l3.7-9c0.5,0.1,1,0.1,1.6,0.2l2.1,8.9c4.8,2,9.7,3.7,14.6,1.9
		c0.2,1.4,0.4,2.8,0.5,4.1c0.4-1.6,0.8-3.2,1.1-4.9c0.6-0.3,1.3-0.7,1.8-1.2C170,86.4,169.9,83.7,169.4,81z"/>
</g>
</svg>
