<?xml version="1.0" encoding="utf-8"?>
<!-- Generator: Adobe Illustrator 26.5.0, SVG Export Plug-In . SVG Version: 6.00 Build 0)  -->
<svg version="1.1" id="Layer_1" xmlns="http://www.w3.org/2000/svg" xmlns:xlink="http://www.w3.org/1999/xlink" x="0px" y="0px"
	 viewBox="0 0 217.6 217.3" style="enable-background:new 0 0 217.6 217.3;" xml:space="preserve">
<style type="text/css">
	.st0{fill:#F3F3F3;}
	.st1{fill:#FFFFFF;}
	.st2{fill:#F8B4B6;}
	.st3{fill:#D39C22;}
	.st4{fill:#302E41;}
</style>
<g id="Bubbles">
	<g>
		<path class="st0" d="M15.9,55c0.5-0.8,0.9-1.6,1.4-2.4c0.5-0.8,1-1.6,1.5-2.4c5.7-9.1,12.9-17.4,21.1-24.4
			c45.2-38.6,113.3-33.3,151.9,12c0.3,0.4,0.7,0.8,1,1.2c0.4,0.4,0.7,0.8,1,1.2c14.7,18.2,23.1,40.8,23.8,64.2v3.4
			c0,2.5-0.1,5.1-0.3,7.6v0.6c-0.3,3.7-0.7,7.4-1.4,11.1l0,0c-1.2,6.4-3,12.8-5.3,18.9l-0.1,0.1c-0.2,0.4-0.3,0.8-0.5,1.2
			c-0.2,0.4-0.3,0.9-0.5,1.3c-0.2,0.3-0.3,0.7-0.5,1.1c-0.1,0.1-0.1,0.3-0.2,0.4c0,0-0.1,0.1-0.1,0.2c-0.1,0.3-0.3,0.6-0.4,0.9
			c-0.1,0.3-0.3,0.6-0.4,0.9c-0.1,0.2-0.2,0.4-0.3,0.6c-0.1,0.3-0.3,0.6-0.4,0.9c-0.1,0.2-0.2,0.5-0.3,0.7l0,0
			c0,0.1-0.1,0.2-0.1,0.3l0,0c-0.1,0.3-0.2,0.5-0.3,0.7c-0.1,0.3-0.3,0.6-0.4,0.9c-0.2,0.3-0.3,0.6-0.5,0.9
			c-0.1,0.3-0.2,0.6-0.4,0.9c0,0-0.1,0.1-0.1,0.2c-0.2,0.2-0.3,0.5-0.4,0.7c-0.3,0.6-0.7,1.1-1,1.7c-0.2,0.5-0.5,1-0.8,1.5
			c0,0.1-0.1,0.1-0.1,0.2c-0.2,0.2-0.3,0.4-0.4,0.6c-0.2,0.3-0.4,0.6-0.6,0.9c-0.2,0.4-0.5,0.8-0.7,1.2v0.1
			c-0.3,0.4-0.6,0.8-0.8,1.2c-0.3,0.3-0.6,0.7-0.8,1.1c-0.3,0.3-0.5,0.7-0.8,1.1l0,0c-0.7,1-1.4,2-2.1,3c-0.2,0.2-0.3,0.4-0.5,0.6
			c-0.5,0.7-1.1,1.5-1.7,2.2l0,0c-0.1,0.2-0.2,0.3-0.3,0.4c-0.2,0.2-0.4,0.5-0.6,0.7l0,0c-0.1,0.1-0.1,0.1-0.2,0.2
			c-0.2,0.3-0.5,0.6-0.7,0.9l0,0c-0.2,0.2-0.4,0.5-0.6,0.7l-0.1,0.1c-0.3,0.3-0.6,0.7-0.9,1l0,0c-4.3,5-9.1,9.5-14.2,13.6
			c-1,0.8-2,1.6-3.1,2.4c-1.3,1-2.6,1.9-4,2.8c-4.3,2.9-8.7,5.4-13.3,7.6l0,0l-0.6,0.3h-0.1c-0.8,0.4-1.7,0.8-2.5,1.2
			c-1,0.4-1.9,0.8-2.8,1.2c-0.5,0.3-1.1,0.5-1.6,0.7c-0.3,0.1-0.5,0.2-0.8,0.3c-1,0.4-2,0.8-3,1.1c-0.7,0.3-1.4,0.6-2.2,0.8
			c0,0.1-0.1,0.1-0.2,0.1l0,0c-0.2,0.1-0.5,0.2-0.8,0.3c-5.3,1.7-10.7,2.9-16.2,3.7l0,0c-0.2,0.1-0.3,0.1-0.5,0.1h-0.3
			c-0.1,0.1-0.3,0.1-0.5,0.1h-0.2c-0.3,0-0.6,0.1-0.8,0.1l-0.8,0.1c-0.3,0.1-0.5,0.1-0.7,0.1h-0.9c-0.6,0.1-1.2,0.1-1.9,0.2l0,0
			c-3,0.3-6,0.4-9.1,0.4c-2.8,0-5.6-0.1-8.4-0.3c-0.2-0.1-0.5-0.1-0.7-0.1l0,0c-0.3-0.1-0.5-0.1-0.8-0.1h-0.1
			c-0.3,0-0.6-0.1-0.9-0.1c-0.4,0-0.8-0.1-1.2-0.1s-0.7-0.1-1.1-0.1h-0.1c-0.4-0.1-0.8-0.2-1.2-0.2h-0.1c-0.3-0.1-0.7-0.2-1-0.2l0,0
			c-2.9-0.4-5.8-0.9-8.6-1.6c-1.7-0.3-3.3-0.7-4.9-1.2c-0.2-0.1-0.3-0.2-0.5-0.2c-3.8-1-7.5-2.3-11.1-3.8c-1-0.4-2-0.8-3-1.3
			c-0.3-0.1-0.5-0.2-0.8-0.3c-0.2-0.1-0.5-0.2-0.7-0.3c-0.3-0.1-0.5-0.2-0.7-0.3c0,0-0.1-0.1-0.2-0.1c-0.3-0.2-0.5-0.3-0.8-0.4
			c-0.3-0.2-0.6-0.3-0.9-0.5c-0.9-0.4-1.7-0.8-2.6-1.3c-0.3-0.2-0.7-0.4-1.1-0.6c-0.6-0.3-1.3-0.7-2-1.1l0,0c-0.1,0-0.3-0.1-0.4-0.2
			c-0.1,0-0.3-0.1-0.4-0.2c-0.5-0.3-1.1-0.7-1.6-1c-0.1,0-0.3-0.1-0.4-0.2c-0.1,0-0.3-0.1-0.4-0.2c0-0.1-0.1-0.2-0.2-0.2
			c-0.3-0.2-0.6-0.3-0.8-0.5c-1-0.6-2-1.2-3-1.9c-7.3-5-13.9-10.9-19.8-17.5c-0.1-0.1-0.2-0.2-0.3-0.3s-0.2-0.2-0.3-0.3
			c-0.1-0.1-0.1-0.1-0.2-0.2l-0.2-0.2c-1.1-1.3-2.2-2.6-3.3-4c-0.1-0.1-0.1-0.2-0.2-0.3l0,0c-0.1-0.1-0.2-0.1-0.2-0.2
			c-0.2-0.4-0.5-0.7-0.7-1c-0.3-0.4-0.6-0.8-0.9-1.2l0,0c-0.4-0.6-0.9-1.3-1.3-1.9l0,0c-0.5-0.8-1.1-1.6-1.6-2.4l0,0
			c-0.2-0.3-0.3-0.5-0.5-0.8l0,0c-0.3-0.6-0.7-1.2-1.1-1.8c-0.2-0.3-0.3-0.5-0.5-0.8c-0.1-0.2-0.2-0.3-0.3-0.5
			c-0.1-0.2-0.3-0.5-0.4-0.7c-0.2-0.3-0.3-0.5-0.5-0.8c-0.5-0.8-1-1.7-1.5-2.6c-0.2-0.4-0.4-0.7-0.6-1.1c-0.2-0.3-0.3-0.7-0.5-1
			c0-0.1-0.1-0.1-0.1-0.2c-0.2-0.3-0.3-0.6-0.5-0.9c-0.1,0-0.1-0.1-0.1-0.1c-0.2-0.3-0.3-0.6-0.5-1c-0.1-0.3-0.3-0.6-0.4-0.9
			c-0.1-0.2-0.2-0.4-0.3-0.6l-0.3-0.7c-0.2-0.4-0.4-0.9-0.6-1.3c-3.9-8.8-6.6-18.1-8-27.7c-0.4-2.9-0.7-5.7-0.9-8.6
			c-0.1-2.4-0.2-4.9-0.2-7.3C2.4,89.6,7.1,71.4,15.9,55z"/>
		<path class="st1" d="M104.2,36.2c8.6,1.4,17.9-1.2,24.3-4.4c0.9-0.6,2-0.8,3.1-0.8c0.6,0.1,1.2,0.2,1.7,0.5
			c3.8,1.7,6.8,3.9,10.6,5.7c7.9,3.6,19.5,5.1,29.9,3.8c6.1-0.8,12.3-2.5,18.3-3c0.7,0.8,1.4,1.6,2,2.4c-2.8,0.5-5.9,0.9-8.7,1.4
			c-5.8,1.1-11,3-17.1,3.5c-2.8,0.2-5.5,0.3-8.3,0.1c-18.2-0.6-36.4-3.3-54.1-7.8C104.8,37.3,103.6,36.7,104.2,36.2z"/>
		<path class="st1" d="M16.2,55.3c0.9-1.6,1.9-3.2,2.8-4.9c7.2,1.6,14.5,2,21.8,1.1c9-1.1,18-4.2,26.7-2.7
			c-3.3,2.1-9.8,2.5-15.1,3.5c-5.8,1.1-11,3-17.1,3.5C32.5,56,29.8,56,27,55.9C23.4,55.8,19.8,55.6,16.2,55.3L16.2,55.3z"/>
		<ellipse class="st2" cx="122.3" cy="122.1" rx="32.4" ry="33.1"/>
		<path class="st3" d="M59.7,203.3c6.5-10.5,16.8-20.4,31-30c0-0.7,0-1.5,0.2-2.2c1-5,5.8-8.2,10.8-7.2l14.8,3.1
			c2.4,0.5,4.4,1.9,5.7,3.9c1.4,2.1,1.8,4.6,1.3,7c-0.4,1.9-1.3,3.6-2.7,4.9c11.2,5.4,19.4,15.7,22,27.9c-0.2,0.1-0.5,0.2-0.8,0.3
			c-5.3,1.7-10.7,2.9-16.2,3.7l0,0c-0.2,0.1-0.3,0.1-0.5,0.1H125c-0.1,0.1-0.3,0.1-0.5,0.1h-0.2c-0.3,0-0.6,0.1-0.8,0.1l-0.8,0.1
			c-0.3,0.1-0.5,0.1-0.7,0.1h-0.9c-0.6,0.1-1.2,0.1-1.9,0.2l0,0c-3,0.3-6,0.4-9.1,0.4c-2.8,0-5.6-0.1-8.4-0.3
			c-0.2-0.1-0.5-0.1-0.7-0.1l0,0c-0.3-0.1-0.5-0.1-0.8-0.1h-0.1c-0.3,0-0.6-0.1-0.9-0.1c-0.4,0-0.8-0.1-1.2-0.1s-0.7-0.1-1.1-0.1
			h-0.1c-0.4-0.1-0.8-0.2-1.2-0.2h-0.1c-0.3-0.1-0.7-0.2-1-0.2l0,0c-2.9-0.4-5.8-0.9-8.6-1.6c-1.7-0.3-3.3-0.8-4.9-1.2
			c-0.2-0.1-0.3-0.2-0.5-0.2c-3.8-1-7.5-2.3-11.1-3.8c-1-0.4-2-0.8-3-1.3c-0.3-0.1-0.5-0.2-0.8-0.3c-0.2-0.1-0.5-0.2-0.7-0.3
			c-0.3-0.1-0.5-0.2-0.7-0.3c0,0-0.1-0.1-0.2-0.1c-0.3-0.2-0.5-0.3-0.8-0.4c-0.3-0.2-0.6-0.3-0.9-0.5
			C61.4,204.2,60.6,203.8,59.7,203.3L59.7,203.3z"/>
		<path class="st4" d="M35.7,107.8c-8.6,10.1-24.2,12.8-35.4,6.3c1.5,5.2,3.2,10.4,6.1,14.9s7.3,8.3,12.4,9.2
			c6.4,1.2,12.9-2.1,17.9-6.4c5.1-4.2,9.3-9.6,14.5-13.6c5.2-4.1,22.5-8.5,28.7-6.4c1.4,0.5,1.7,2,1.4,4.1
			c-1.6,10.6,1.3,21.5,7.9,30c0.2,0.2,0.3,0.3,0.4,0.5c5.8,9,17.1,13.7,27.3,11.4c4.2-1,8.9-4.1,8.5-8.6c-0.3-2.9-2.6-5.1-4.6-7.3
			c-2-2.1-3.9-5.1-2.9-7.9c1.4-4,6.8-3.8,10.6-5.3c4.7-1.9,7.5-7.8,6.1-12.9l2.6-2.4c7.2,3.9,17.1,1.3,21.7-5.8
			c4.6-7.1,3.2-17.7-3-23.2c-6.5-5.5-16.1-5.3-22.4,0.5c-6.9-9.8-20.2-14.1-31.2-10.2s-19,15.7-18.9,27.9c-0.4-6-0.8-12-3-17.5
			c-2.2-5.5-6.5-10.4-12.1-11.6c-8.1-1.7-15.7,4.8-20.1,12.1C43.8,92.9,41.2,101.4,35.7,107.8L35.7,107.8z"/>
	</g>
</g>
</svg>
