<?xml version="1.0" encoding="utf-8"?>
<!-- Generator: Adobe Illustrator 26.5.0, SVG Export Plug-In . SVG Version: 6.00 Build 0)  -->
<svg version="1.1" id="Layer_1" xmlns="http://www.w3.org/2000/svg" xmlns:xlink="http://www.w3.org/1999/xlink" x="0px" y="0px"
	 viewBox="0 0 809.3 822.6" style="enable-background:new 0 0 809.3 822.6;" xml:space="preserve">
<style type="text/css">
	.st0{fill:#F0F0F0;}
	.st1{fill:#e1f0ff;}
	.st2{fill:#FFFFFF;}
	.st3{fill:#e1f0ff;}
	.st4{fill:#CACACA;}
	.st5{fill:#3F3D56;}
	.st6{fill:#fd5270;}
	.st7{fill:#FFB8B8;}
	.st8{fill:#2F2E41;}
	.st9{fill:#FFB6B6;}
	.st10{fill:#9E616A;}
</style>
<path class="st0" d="M168,414.3c-36.6-36-52-73.6-43.5-105.8c10.9-41.3,59.6-69.9,133.4-78.4l0.3,2.4
	c-72.8,8.4-120.7,36.3-131.4,76.7c-8.3,31.4,6.9,68.1,42.9,103.5L168,414.3z"/>
<path class="st0" d="M521.1,542.2c-45.7,0-95.3-6.8-144.6-19.8c-61-16.1-116.9-40.5-161.6-70.4l1.3-2c44.6,29.8,100.2,54,160.9,70.1
	c54.9,14.5,110.1,21.3,159.8,19.5l0.1,2.4C531.7,542.1,526.4,542.2,521.1,542.2z"/>
<path class="st0" d="M625.8,527.2l-0.8-2.3c40.8-13.8,66.4-36.1,73.9-64.3c9.5-35.9-11.2-77.7-58.2-117.5
	c-47.3-40-115.5-73.2-192.1-93.5l0.6-2.3c76.9,20.4,145.4,53.7,193,93.9c47.8,40.4,68.8,83,59,119.9
	C693.6,490.3,667.5,513.1,625.8,527.2z"/>
<path class="st0" d="M250.8,543.2c-89.7-39.8-158.9-91.4-194.7-145.4l2-1.3C93.6,450,162.4,501.4,251.8,541L250.8,543.2z"/>
<path class="st0" d="M514.2,232.2c-14.8-4.8-30.1-9.3-45.3-13.4c-87.8-23.2-174.1-31.5-249.6-23.9l-0.2-2.4
	c75.8-7.7,162.4,0.6,250.4,23.9c15.3,4.1,30.6,8.6,45.5,13.4L514.2,232.2z"/>
<path class="st0" d="M111.9,417.9c-36.6-36-52-73.6-43.5-105.8c10.9-41.3,59.6-69.9,133.4-78.4l0.3,2.4
	c-72.8,8.4-120.7,36.3-131.4,76.7c-8.3,31.4,6.9,68.1,42.9,103.5L111.9,417.9z"/>
<path class="st0" d="M465,545.8c-45.7,0-95.3-6.8-144.6-19.8c-61-16.1-116.9-40.5-161.6-70.4l1.3-2c44.6,29.8,100.2,54,160.9,70.1
	c54.9,14.5,110.1,21.3,159.8,19.5l0.1,2.4C475.7,545.7,470.4,545.8,465,545.8z"/>
<path class="st0" d="M569.8,530.7l-0.8-2.3c40.8-13.8,66.4-36.1,73.9-64.3c9.5-35.9-11.2-77.7-58.2-117.5
	c-47.3-40-115.5-73.2-192.1-93.5l0.6-2.3c76.9,20.4,145.4,53.7,193,93.9c47.8,40.4,68.8,83,59,119.9
	C637.5,493.9,611.4,516.7,569.8,530.7z"/>
<path class="st0" d="M194.7,546.8C105,507,35.8,455.3,0,401.4l2-1.3C37.6,453.6,106.3,505,195.7,544.6L194.7,546.8z"/>
<path class="st0" d="M458.1,235.8c-14.8-4.8-30.1-9.3-45.3-13.4c-87.8-23.2-174.1-31.5-249.6-23.9l-0.2-2.4
	c75.8-7.7,162.4,0.6,250.4,23.9c15.3,4.1,30.6,8.6,45.5,13.4L458.1,235.8z"/>
<path class="st1" d="M40.7,354C57.8,334.7,85.2,323,110,330c-22.9,16.2-39.3,39.9-46.3,67.1c-2.7,10.5-4.6,22.4-13.3,28.8
	c-5.4,4-12.6,4.9-19.3,4c-6.7-0.9-13-3.5-19.2-6.1l-1.7,0.1C15.1,398.7,23.5,373.2,40.7,354z"/>
<path class="st2" d="M109.9,330.6c-20.7,5-39.3,16.4-53.2,32.6c-3,3.4-5.5,7.3-7.4,11.5c-1.7,4.2-2.2,8.7-1.5,13.1
	c0.6,4.1,1.6,8.3,1.1,12.5c-0.5,4.3-2.9,8.2-6.5,10.7c-4.4,3.2-9.6,4.6-14.8,5.8c-5.7,1.3-11.7,2.7-16.4,6.5
	c-0.6,0.5-1.3-0.4-0.7-0.9c8.1-6.6,19.5-5.8,28.5-10.6c4.2-2.2,7.8-5.8,8.6-10.6c0.8-4.2-0.3-8.5-0.9-12.7c-0.7-4.3-0.4-8.7,1-12.9
	c1.6-4.3,3.9-8.3,6.9-11.8c6.5-8,14.3-14.9,22.9-20.5c9.9-6.4,20.7-11.2,32.2-13.9C110.5,329.3,110.6,330.4,109.9,330.6L109.9,330.6
	z"/>
<path class="st2" d="M60.8,357.7c-5-5.6-5.2-13.9-0.5-19.7c0.5-0.6,1.4,0.1,0.9,0.7c-4.4,5.4-4.2,13.2,0.5,18.3
	C62.2,357.6,61.3,358.3,60.8,357.7z"/>
<path class="st2" d="M47.3,385.8c7.4,0.5,14.6-1.8,20.4-6.5c0.6-0.5,1.3,0.4,0.7,0.9c-6,4.8-13.6,7.2-21.2,6.7
	C46.4,386.9,46.6,385.7,47.3,385.8z"/>
<path class="st2" d="M87.7,338.4c1.4,2.5,4.1,4.1,7,4.3c0.7,0,0.6,1.2-0.2,1.1c-3.2-0.2-6.1-2-7.7-4.7c-0.2-0.3-0.1-0.6,0.1-0.8
	C87.1,338.1,87.5,338.2,87.7,338.4L87.7,338.4z"/>
<path class="st1" d="M145.2,409.9c-0.5,0-0.9,0-1.4,0c-6.1-0.1-12.3,0.2-18.4,1.1c-0.5,0.1-0.9,0.1-1.4,0.2
	c-14.6,2.2-28.7,7.1-41.6,14.5c-5.1,2.9-10,6.3-14.6,9.9c-6.4,5.1-12.9,11.1-20.3,13.7c-0.8,0.3-1.6,0.5-2.4,0.7L10.6,426
	c-0.1-0.1-0.1-0.2-0.2-0.3L9,424.9c0.2-0.2,0.5-0.4,0.7-0.6c0.1-0.1,0.3-0.2,0.4-0.4c0.1-0.1,0.2-0.2,0.3-0.2c0,0,0.1-0.1,0.1-0.1
	c0.1-0.1,0.2-0.1,0.2-0.2c1.3-1.2,2.7-2.3,4-3.5c0,0,0,0,0,0c10.3-8.8,21.3-16.8,33.3-22.9c0.4-0.2,0.7-0.4,1.1-0.5
	c5.4-2.7,11-5,16.8-6.8c3.2-1,6.4-1.8,9.6-2.4c8.4-1.7,17-2,25.5-1c16.9,2,33,9.4,43.5,22.6C144.6,409.2,144.9,409.5,145.2,409.9z"
	/>
<path class="st2" d="M144.8,410.2c-19.6-8.5-41.3-10.6-62.1-6c-4.5,0.9-8.8,2.5-12.8,4.8c-3.8,2.3-7,5.6-9.1,9.6
	c-2,3.6-3.7,7.6-6.6,10.7c-3,3.1-7.3,4.8-11.7,4.7c-5.4-0.1-10.4-2.1-15.3-4.2c-5.4-2.4-11-4.9-17-4.7c-0.7,0-0.7-1.1,0-1.1
	c10.5-0.4,19,7.1,29.1,8.7c4.7,0.7,9.7,0.1,13.3-3.3c3.2-2.9,4.9-7,6.9-10.7c2-3.9,4.9-7.2,8.5-9.7c3.9-2.5,8.1-4.2,12.6-5.3
	c10-2.5,20.4-3.3,30.7-2.6c11.8,0.8,23.3,3.6,34.1,8.3C146,409.6,145.5,410.5,144.8,410.2L144.8,410.2z"/>
<path class="st2" d="M89.3,402.4c-0.6-7.4,4.3-14.2,11.5-16c0.7-0.2,1,0.9,0.3,1.1c-6.7,1.7-11.3,8-10.7,14.9
	C90.5,403.1,89.3,403.1,89.3,402.4z"/>
<path class="st2" d="M61.5,416.6c5.6,4.8,12.8,7.4,20.2,7.1c0.7,0,0.7,1.1,0,1.1c-7.7,0.2-15.2-2.4-21-7.5
	C60.2,417,61,416.2,61.5,416.6L61.5,416.6z"/>
<path class="st2" d="M122.3,403.1c-0.4,2.9,0.8,5.7,3,7.6c0.6,0.5-0.2,1.3-0.8,0.8c-2.4-2.1-3.7-5.2-3.3-8.4c0-0.3,0.3-0.6,0.6-0.6
	C122.1,402.6,122.3,402.8,122.3,403.1L122.3,403.1z"/>
<path class="st2" d="M673.6,481.1c-2.2,1.9-5.2,2.5-8,1.7c-0.7-0.2-0.9,0.9-0.2,1.1c3.1,0.9,6.4,0.2,8.8-1.9
	c0.3-0.2,0.3-0.5,0.2-0.8C674.2,481,673.9,481,673.6,481.1L673.6,481.1z"/>
<g>
	<path class="st1" d="M734.3,464.2c-7.9-17.3-24.9-31.7-44.5-32.4c12.7,16.5,19,36.8,17.6,57.3c-0.5,7.9-2,16.7,2.8,23.1
		c3,4,7.9,6.3,13,7.2c5,0.9,10.2,0.5,15.3,0.1l1.2,0.5C742.2,501.2,742.1,481.5,734.3,464.2z"/>
	<path class="st2" d="M689.7,432.2c13.8,8.2,24.6,20.4,30.8,34.8c1.4,3.1,2.3,6.4,2.6,9.7c0.2,3.3-0.5,6.6-2,9.5
		c-1.4,2.8-3.1,5.4-3.8,8.5c-0.6,3.2,0.2,6.4,2.2,9c2.4,3.2,5.8,5.4,9.3,7.4c3.8,2.2,7.9,4.5,10.3,8.2c0.3,0.5,1,0,0.7-0.5
		c-4.3-6.5-12.7-8.4-18.1-13.9c-2.5-2.5-4.2-5.8-3.7-9.4c0.5-3.1,2.3-5.9,3.7-8.7c1.5-2.8,2.4-6,2.3-9.2c-0.2-3.4-0.9-6.7-2.2-9.8
		c-2.8-7.1-6.8-13.6-11.7-19.5c-5.6-6.7-12.4-12.5-20-17C689.6,431.1,689.3,431.9,689.7,432.2L689.7,432.2z"/>
	<path class="st2" d="M718.8,462.3c4.9-2.8,7-8.5,5-13.6c-0.2-0.5-1-0.2-0.8,0.3c1.9,4.8-0.1,10.1-4.7,12.7
		C717.8,461.8,718.3,462.5,718.8,462.3L718.8,462.3z"/>
	<path class="st2" d="M722,484.9c-5.4-1.3-10.2-4.6-13.2-9.1c-0.3-0.4-1,0-0.7,0.5c3.2,4.7,8.1,8.1,13.8,9.5
		C722.4,485.9,722.5,485,722,484.9L722,484.9z"/>
	<path class="st1" d="M645.4,479.5c0.3,0.1,0.7,0.2,1,0.3c4.5,1.3,8.8,2.9,13,4.9c0.3,0.1,0.7,0.3,1,0.5
		c10.1,4.9,19.1,11.5,26.7,19.5c3,3.2,5.7,6.6,8.2,10.2c3.4,5,6.7,10.7,11.5,14.2c0.5,0.4,1,0.7,1.5,1l30.7-8.8
		c0.1-0.1,0.1-0.1,0.2-0.2l1.2-0.3c-0.1-0.2-0.2-0.4-0.3-0.6c-0.1-0.1-0.1-0.2-0.2-0.3c0-0.1-0.1-0.1-0.1-0.2c0,0,0,0,0-0.1
		c0-0.1-0.1-0.1-0.1-0.2c-0.7-1.1-1.4-2.2-2.1-3.3c0,0,0,0,0,0c-5.3-8.5-11.5-16.6-18.7-23.5c-0.2-0.2-0.4-0.4-0.7-0.6
		c-3.3-3.1-6.8-6-10.5-8.5c-2.1-1.4-4.2-2.7-6.4-3.9c-5.7-3.1-11.8-5.2-18.2-6.5c-12.7-2.4-26.1-0.9-36.8,5.9
		C646,479.2,645.7,479.3,645.4,479.5z"/>
	<path class="st2" d="M645.6,479.9c16.2-1.5,32.4,2,46.4,9.9c3,1.7,5.8,3.8,8.2,6.2c2.2,2.5,3.7,5.5,4.3,8.7c0.6,3,0.9,6.1,2.3,8.9
		c1.5,2.9,4.1,5,7.3,5.9c3.9,1.2,8,0.9,12.1,0.5c4.5-0.4,9.1-1,13.4,0.6c0.5,0.2,0.8-0.6,0.3-0.8c-7.5-2.7-15.4,0.6-23.1-0.5
		c-3.6-0.6-7-2.2-8.8-5.3c-1.6-2.8-1.9-6-2.5-9c-0.5-3.2-1.9-6.1-3.9-8.7c-2.2-2.6-4.9-4.8-7.9-6.5c-6.7-4-13.9-6.9-21.6-8.8
		c-8.7-2.1-17.7-2.8-26.6-2C644.9,479.1,645.1,479.9,645.6,479.9L645.6,479.9z"/>
	<path class="st2" d="M687.7,487c2.2-5,0.3-10.9-4.5-13.8c-0.5-0.3-1,0.4-0.5,0.7c4.5,2.7,6.3,8.1,4.2,12.8
		C686.6,487.2,687.4,487.5,687.7,487L687.7,487z"/>
	<path class="st2" d="M704.4,503.2c-5.2,2.1-11,2.2-16.3,0.4c-0.5-0.2-0.8,0.6-0.3,0.8c5.5,1.9,11.5,1.8,16.9-0.4
		C705.3,503.7,704.9,503,704.4,503.2L704.4,503.2z"/>
</g>
<path class="st2" d="M619.2,530.4c-0.6,2.8-2.6,5.2-5.4,6.2c-0.7,0.3-0.2,1.3,0.5,1c3-1.2,5.2-3.7,5.9-6.8c0.1-0.3-0.1-0.6-0.3-0.7
	C619.7,530,619.3,530.2,619.2,530.4L619.2,530.4z"/>
<circle class="st3" cx="647.5" cy="443.5" r="9.5"/>
<circle class="st3" cx="337" cy="193.4" r="9.5"/>
<path class="st2" d="M246.2,463c-0.1,0-0.2,0-0.2,0c0.3-0.2,0.6-0.4,0.9-0.7L246.2,463z"/>
<path class="st4" d="M808.3,37.3H1c-0.6,0-1-0.5-1-1.1c0-0.6,0.5-1,1-1h807.3c0.6,0,1,0.5,1,1.1C809.3,36.8,808.9,37.3,808.3,37.3
	L808.3,37.3z"/>
<ellipse class="st5" cx="23.8" cy="11.4" rx="11.1" ry="11.4"/>
<ellipse class="st5" cx="62.3" cy="11.4" rx="11.1" ry="11.4"/>
<ellipse class="st5" cx="100.9" cy="11.4" rx="11.1" ry="11.4"/>
<path class="st5" d="M785.3,7h-27.4c-1.1,0-2.1-1-2-2.1c0-1.1,0.9-2,2-2h27.4c1.1,0,2.1,1,2,2.1C787.3,6.1,786.4,6.9,785.3,7z"/>
<path class="st5" d="M785.3,14.7h-27.4c-1.1,0-2.1-1-2-2.1c0-1.1,0.9-2,2-2h27.4c1.1,0,2.1,1,2,2.1
	C787.3,13.8,786.4,14.7,785.3,14.7z"/>
<path class="st5" d="M785.3,22.5h-27.4c-1.1,0-2.1-1-2-2.1c0-1.1,0.9-2,2-2h27.4c1.1,0,2.1,1,2,2.1
	C787.3,21.6,786.4,22.5,785.3,22.5z"/>
<path class="st2" d="M715,227c0.1,0,0.2,0,0.2,0c-0.3-0.2-0.6-0.4-0.9-0.7L715,227z"/>
<path class="st2" d="M148.2,160c-0.1,0-0.2,0-0.2,0c0.3-0.2,0.6-0.4,0.9-0.7L148.2,160z"/>
<path class="st0" d="M773.7,512c-92.4,33.2-178,43.6-241.2,29.4l0.5-2.3c62.7,14.2,147.9,3.8,239.9-29.3L773.7,512z"/>
<g id="Bubbles_00000021080711329547749260000018062199235580306572_">
	<g>
		<path class="st1" d="M180.8,522.1c0,2.4,0.1,4.9,0.2,7.3c0.2,2.9,0.5,5.7,0.9,8.6c1.4,9.6,4.1,18.9,8,27.7
			c0.2,0.4,0.4,0.9,0.6,1.3l0.3,0.7c0.1,0.2,0.2,0.4,0.3,0.7s0.3,0.6,0.4,0.8c0.2,0.3,0.3,0.7,0.5,1c0,0,0,0.1,0.1,0.1
			c0.1,0.3,0.3,0.6,0.5,0.9c0,0.1,0.1,0.1,0.1,0.2c0.2,0.3,0.4,0.7,0.5,1c0.2,0.4,0.4,0.7,0.6,1.1c0.5,0.9,1,1.8,1.5,2.7
			c0.1,0.3,0.3,0.5,0.5,0.8c0.1,0.2,0.3,0.5,0.4,0.7c0.1,0.2,0.2,0.3,0.3,0.5c0.2,0.3,0.3,0.5,0.5,0.8c0.4,0.6,0.8,1.2,1.1,1.8l0,0
			c0.2,0.3,0.4,0.5,0.5,0.8l0,0c0.5,0.8,1.1,1.6,1.6,2.4l0,0l0,0c0.4,0.6,0.9,1.3,1.4,1.9l0,0c0.3,0.4,0.6,0.8,0.9,1.2
			c0.2,0.3,0.5,0.7,0.7,1c0,0.1,0.1,0.1,0.2,0.2l0,0c0.1,0.1,0.1,0.2,0.2,0.3c1.1,1.4,2.2,2.7,3.3,4l0.2,0.2
			c0.1,0.1,0.1,0.1,0.2,0.2c0.1,0.1,0.2,0.2,0.3,0.3s0.2,0.2,0.3,0.3c5.9,6.6,12.5,12.5,19.8,17.5c1,0.7,2,1.3,3,2
			c0.2,0.2,0.5,0.3,0.8,0.5c0.1,0,0.1,0.1,0.2,0.2c0.1,0.1,0.3,0.2,0.4,0.2c0.1,0.1,0.3,0.2,0.4,0.2c0.5,0.3,1.1,0.7,1.6,1
			c0.1,0.1,0.3,0.2,0.4,0.2c0.1,0.1,0.3,0.2,0.4,0.2l0,0l0,0l0,0l0,0c0.7,0.4,1.4,0.8,2,1.1c0.4,0.2,0.8,0.4,1.1,0.6
			c0.9,0.5,1.7,0.9,2.6,1.3c0.3,0.2,0.6,0.3,0.9,0.5c0.3,0.1,0.5,0.2,0.8,0.4c0.1,0,0.1,0.1,0.2,0.1c0.2,0.1,0.4,0.2,0.6,0.3
			c0.2,0.1,0.5,0.2,0.7,0.3c0.3,0.1,0.5,0.2,0.8,0.3c1,0.5,2,0.9,3,1.3c3.6,1.5,7.3,2.8,11.1,3.8c0.2,0,0.3,0.1,0.5,0.2
			c1.6,0.4,3.2,0.9,4.9,1.2c2.9,0.7,5.7,1.2,8.6,1.6l0,0c0.3,0,0.7,0.1,1,0.2h0.1l0,0c0.4,0,0.8,0.1,1.1,0.2h0.1
			c0.4,0,0.7,0.1,1.1,0.1s0.8,0.1,1.2,0.1c0.3,0,0.6,0.1,0.9,0.1h0.1c0.3,0,0.5,0,0.8,0.1l0,0c0.2,0,0.5,0,0.7,0.1
			c2.8,0.2,5.6,0.3,8.4,0.3c3.1,0,6.1-0.1,9.1-0.4l0,0c0.6-0.1,1.3-0.1,1.9-0.2c0.2,0,0.3,0,0.5,0h0.1c0,0,0.1,0,0.2,0h0.1
			c0.2,0,0.4,0,0.7-0.1l0.8-0.1c0.2,0,0.5-0.1,0.8-0.1c0.1,0,0.1,0,0.2,0c0.2,0,0.4,0,0.5-0.1c0.1,0,0.2,0,0.3,0
			c0.2,0,0.3,0,0.5-0.1l0,0c5.5-0.8,10.9-2,16.2-3.7c0.3-0.1,0.6-0.2,0.8-0.3l0,0c0.1,0,0.2,0,0.2-0.1c0.8-0.2,1.5-0.5,2.2-0.8
			c1-0.3,2-0.7,3-1.1c0.3-0.1,0.5-0.2,0.8-0.3c0.5-0.2,1.1-0.4,1.6-0.7c0.9-0.4,1.8-0.8,2.8-1.2c0.8-0.4,1.7-0.8,2.5-1.2
			c0,0,0,0,0.1,0c0.2-0.1,0.4-0.2,0.6-0.3l0,0c4.6-2.2,9-4.7,13.3-7.6c1.4-0.9,2.7-1.8,4-2.8c1.1-0.8,2.1-1.6,3.1-2.4
			c5.1-4.1,9.9-8.6,14.2-13.6l0,0c0.3-0.3,0.6-0.7,0.9-1l0.1-0.1c0.2-0.2,0.4-0.5,0.6-0.7l0,0c0.2-0.3,0.5-0.6,0.7-0.9
			c0.1-0.1,0.1-0.1,0.2-0.2l0,0c0.2-0.2,0.4-0.5,0.6-0.7c0.1-0.1,0.2-0.2,0.3-0.4l0,0c0.6-0.7,1.2-1.5,1.7-2.2
			c0.2-0.2,0.3-0.4,0.5-0.6c0.7-1,1.4-2,2.1-3l0,0c0.3-0.4,0.5-0.8,0.8-1.1c0.2-0.4,0.5-0.8,0.8-1.1c0.2-0.4,0.5-0.8,0.8-1.2v-0.1
			c0.2-0.4,0.5-0.8,0.7-1.2c0.2-0.3,0.4-0.6,0.6-0.9c0.1-0.2,0.2-0.4,0.4-0.6c0-0.1,0.1-0.1,0.1-0.2c0.3-0.5,0.6-1,0.8-1.5
			c0.3-0.6,0.7-1.2,1-1.7c0.1-0.2,0.2-0.5,0.4-0.7c0-0.1,0.1-0.2,0.1-0.2c0.2-0.3,0.3-0.6,0.4-0.9c0.2-0.3,0.3-0.6,0.5-0.9
			c0.1-0.3,0.3-0.6,0.4-0.9c0.1-0.2,0.2-0.4,0.3-0.7l0,0c0-0.1,0.1-0.2,0.1-0.3l0,0c0.1-0.2,0.2-0.5,0.3-0.7
			c0.1-0.3,0.3-0.6,0.4-0.9c0.1-0.2,0.2-0.4,0.3-0.6c0.1-0.3,0.3-0.6,0.4-0.9c0.1-0.3,0.3-0.6,0.4-0.9c0-0.1,0.1-0.2,0.1-0.2
			c0.1-0.1,0.1-0.3,0.2-0.4c0.2-0.4,0.3-0.8,0.5-1.1c0.2-0.4,0.3-0.8,0.5-1.3c0.2-0.4,0.3-0.8,0.5-1.2l0.1-0.1
			c2.3-6.1,4.1-12.5,5.3-18.9l0,0c0.7-3.7,1.1-7.4,1.4-11.1c0-0.2,0-0.4,0-0.6c0.2-2.5,0.3-5.1,0.3-7.6c0-1.1,0-2.2,0-3.4
			c-0.7-23.4-9.1-46-23.8-64.2c-0.3-0.4-0.6-0.8-1-1.2c-0.3-0.4-0.7-0.8-1-1.2c-38.6-45.3-106.7-50.6-151.9-12
			c-8.2,7-15.4,15.3-21.1,24.4c-0.5,0.8-1,1.6-1.5,2.4s-0.9,1.6-1.4,2.4C185.5,485.5,180.8,503.7,180.8,522.1z"/>
		<path class="st2" d="M284.3,451.7c17.7,4.5,35.9,7.2,54.1,7.8c2.8,0.2,5.5,0.1,8.3-0.1c6.1-0.5,11.3-2.4,17.1-3.5
			c2.8-0.5,5.9-0.9,8.7-1.4c-0.6-0.8-1.3-1.6-2-2.4c-6,0.5-12.2,2.2-18.3,3c-10.4,1.3-22-0.2-29.9-3.8c-3.8-1.8-6.8-4-10.6-5.7
			c-0.5-0.3-1.1-0.4-1.7-0.5c-1.1,0-2.2,0.2-3.1,0.8c-6.4,3.2-15.7,5.8-24.3,4.4C282,450.8,283.2,451.4,284.3,451.7z"/>
		<path class="st2" d="M194.6,469.4c3.6,0.3,7.2,0.5,10.8,0.6c2.8,0.1,5.5,0.1,8.3-0.1c6.1-0.5,11.3-2.4,17.1-3.5
			c5.3-1,11.8-1.4,15.1-3.5c-8.7-1.5-17.7,1.6-26.7,2.7c-7.3,0.9-14.6,0.5-21.8-1.1C196.5,466.2,195.5,467.8,194.6,469.4z"/>
		<path class="st6" d="M238.1,617.4c0.9,0.5,1.7,0.9,2.6,1.3c0.3,0.2,0.6,0.3,0.9,0.5c0.3,0.1,0.5,0.2,0.8,0.4
			c0.1,0,0.1,0.1,0.2,0.1c0.2,0.1,0.4,0.2,0.6,0.3c0.2,0.1,0.5,0.2,0.7,0.3c0.3,0.1,0.5,0.2,0.8,0.3c1,0.5,2,0.9,3,1.3
			c3.6,1.5,7.3,2.8,11.1,3.8c0.2,0,0.3,0.1,0.5,0.2c1.6,0.4,3.2,0.9,4.9,1.2c2.9,0.7,5.7,1.2,8.6,1.6l0,0c0.3,0,0.7,0.1,1,0.2h0.1
			l0,0c0.4,0,0.8,0.1,1.1,0.2h0.1c0.4,0,0.7,0.1,1.1,0.1s0.8,0.1,1.2,0.1c0.3,0,0.6,0.1,0.9,0.1h0.1c0.3,0,0.5,0,0.8,0.1l0,0
			c0.2,0,0.5,0,0.7,0.1c2.8,0.2,5.6,0.3,8.4,0.3c3.1,0,6.1-0.1,9.1-0.4l0,0c0.6-0.1,1.3-0.1,1.9-0.2c0.2,0,0.3,0,0.5,0h0.1
			c0,0,0.1,0,0.2,0h0.1c0.2,0,0.4,0,0.7-0.1l0.8-0.1c0.2,0,0.5-0.1,0.8-0.1c0.1,0,0.1,0,0.2,0c0.2,0,0.4,0,0.5-0.1
			c0.1,0,0.2,0,0.3,0c0.2,0,0.3,0,0.5-0.1l0,0c5.5-0.8,10.9-2,16.2-3.7c0.3-0.1,0.6-0.2,0.8-0.3c-2.6-12.2-10.8-22.5-22-27.9
			c1.4-1.3,2.3-3,2.7-4.9c0.5-2.4,0.1-4.9-1.3-7c-1.3-2-3.3-3.4-5.7-3.9l-14.8-3.1c-5-1-9.8,2.2-10.8,7.2c-0.2,0.7-0.2,1.5-0.2,2.2
			C254.9,597,244.6,606.9,238.1,617.4z"/>
		<circle class="st7" cx="281.9" cy="541.4" r="30.9"/>
		<path class="st8" d="M262.6,568c-3.3-2.2-6.7-6.6-8.9-9.8c-6-8.6-8.1-19.4-5.7-29.6c0.4-2,1.3-3.9,2.7-5.4
			c1.5-1.4,3.8-2.1,5.6-1.1c-1-2.6-0.8-5.5,0.4-8c1.2-2.5,3.1-4.6,5.3-6.3c8.7-6.7,20.3-8.1,30.3-3.6c1.9,0.9-1.2-6,0.8-5.3
			c2,0.8,4.2,0.7,6.2-0.1c1.9-1,8.2,4.7,7.5,2.7c4.7,2.1,6.8,7.7,4.7,12.4c-0.6,1.3-1.4,2.4-2.5,3.3c-1.6,1.3-3.6,2.1-5.3,3.3
			c-6.3,4.5-8.3,12.9-4.7,19.7c-1.8-1.2-3.8-2.1-6-2.6s-4.4,0-6.1,1.5c-1.4,1.6-2.1,3.7-1.9,5.8c0.1,2.1,0.6,4.2,0.6,6.3
			c0.2,6.1,3.5,17.8-1.3,21.1C280.5,574.8,267.1,571.1,262.6,568z"/>
	</g>
	<g>
		<path class="st1" d="M780.4,286.1c0,2.4-0.1,4.9-0.2,7.3c-0.2,2.9-0.5,5.7-0.9,8.6c-1.4,9.6-4.1,18.9-8,27.7
			c-0.2,0.4-0.4,0.9-0.6,1.3l-0.3,0.7c-0.1,0.2-0.2,0.4-0.3,0.6c-0.1,0.3-0.3,0.6-0.4,0.9c-0.2,0.4-0.3,0.7-0.5,1c0,0,0,0.1-0.1,0.1
			c-0.2,0.3-0.3,0.6-0.5,0.9c0,0.1-0.1,0.1-0.1,0.2c-0.2,0.3-0.3,0.7-0.5,1c-0.2,0.4-0.4,0.7-0.6,1.1c-0.5,0.9-1,1.8-1.5,2.6
			c-0.2,0.3-0.3,0.5-0.5,0.8c-0.1,0.2-0.3,0.5-0.4,0.7c-0.1,0.2-0.2,0.3-0.3,0.5c-0.2,0.3-0.3,0.5-0.5,0.8c-0.4,0.6-0.8,1.2-1.1,1.8
			l0,0c-0.2,0.3-0.3,0.5-0.5,0.8l0,0c-0.5,0.8-1.1,1.6-1.6,2.4l0,0l0,0c-0.4,0.6-0.9,1.3-1.3,1.9l0,0c-0.3,0.4-0.6,0.8-0.9,1.2
			c-0.2,0.3-0.5,0.6-0.7,1c0,0.1-0.1,0.1-0.2,0.2l0,0c-0.1,0.1-0.1,0.2-0.2,0.3c-1.1,1.4-2.2,2.7-3.3,4l-0.2,0.2
			c-0.1,0.1-0.1,0.1-0.2,0.2c-0.1,0.1-0.2,0.2-0.3,0.3c-0.1,0.1-0.2,0.2-0.3,0.3c-5.9,6.6-12.5,12.5-19.8,17.5c-1,0.7-2,1.3-3,1.9
			c-0.2,0.2-0.5,0.3-0.8,0.5c-0.1,0-0.2,0.1-0.2,0.2c-0.1,0.1-0.3,0.2-0.4,0.2c-0.1,0.1-0.3,0.2-0.4,0.2c-0.5,0.3-1.1,0.7-1.6,1
			c-0.1,0.1-0.3,0.2-0.4,0.2c-0.1,0.1-0.3,0.2-0.4,0.2l0,0l0,0l0,0l0,0c-0.7,0.4-1.4,0.8-2,1.1c-0.4,0.2-0.8,0.4-1.1,0.6
			c-0.9,0.5-1.7,0.9-2.6,1.3c-0.3,0.2-0.6,0.3-0.9,0.5c-0.3,0.1-0.5,0.2-0.8,0.4c-0.1,0-0.2,0.1-0.2,0.1c-0.2,0.1-0.4,0.2-0.7,0.3
			c-0.2,0.1-0.5,0.2-0.7,0.3c-0.3,0.1-0.5,0.2-0.8,0.3c-1,0.5-2,0.9-3,1.3c-3.6,1.5-7.3,2.8-11.1,3.8c-0.2,0-0.3,0.1-0.5,0.2
			c-1.6,0.5-3.2,0.9-4.9,1.2c-2.8,0.7-5.7,1.2-8.6,1.6l0,0c-0.3,0-0.7,0.1-1,0.2h-0.1l0,0c-0.4,0-0.8,0.1-1.2,0.2h-0.1
			c-0.4,0-0.7,0.1-1.1,0.1c-0.4,0-0.8,0.1-1.2,0.1c-0.3,0-0.6,0.1-0.9,0.1h-0.1c-0.3,0-0.5,0-0.8,0.1l0,0c-0.2,0-0.5,0-0.7,0.1
			c-2.8,0.2-5.6,0.3-8.4,0.3c-3.1,0-6.1-0.1-9.1-0.4l0,0c-0.7-0.1-1.3-0.1-1.9-0.2c-0.2,0-0.3,0-0.5,0h-0.1c0,0-0.1,0-0.2,0H661
			c-0.2,0-0.4,0-0.7-0.1l-0.8-0.1c-0.2,0-0.5-0.1-0.8-0.1c-0.1,0-0.1,0-0.2,0c-0.2,0-0.4,0-0.5-0.1c-0.1,0-0.2,0-0.3,0
			c-0.2,0-0.3,0-0.5-0.1l0,0c-5.5-0.8-10.9-2-16.2-3.7c-0.3-0.1-0.6-0.2-0.8-0.3l0,0c-0.1,0-0.2,0-0.2-0.1c-0.8-0.2-1.5-0.5-2.2-0.8
			c-1-0.3-2-0.7-3-1.1c-0.3-0.1-0.5-0.2-0.8-0.3c-0.5-0.2-1.1-0.4-1.6-0.7c-0.9-0.4-1.8-0.8-2.8-1.2c-0.8-0.4-1.7-0.8-2.5-1.2
			c0,0,0,0-0.1,0c-0.2-0.1-0.4-0.2-0.6-0.3l0,0c-4.6-2.2-9-4.7-13.3-7.6c-1.4-0.9-2.7-1.8-4-2.8c-1.1-0.8-2.1-1.6-3.1-2.4
			c-5.1-4.1-9.9-8.6-14.2-13.6l0,0c-0.3-0.3-0.6-0.7-0.9-1l-0.1-0.1c-0.2-0.2-0.4-0.5-0.6-0.7l0,0c-0.2-0.3-0.5-0.6-0.7-0.9
			c-0.1-0.1-0.1-0.1-0.2-0.2l0,0c-0.2-0.2-0.4-0.5-0.6-0.7c-0.1-0.1-0.2-0.2-0.3-0.4l0,0c-0.6-0.7-1.2-1.5-1.7-2.2
			c-0.2-0.2-0.3-0.4-0.5-0.6c-0.7-1-1.4-2-2.1-3l0,0c-0.3-0.4-0.5-0.8-0.8-1.1c-0.2-0.4-0.5-0.8-0.8-1.1c-0.2-0.4-0.5-0.8-0.8-1.2
			v-0.1c-0.2-0.4-0.5-0.8-0.7-1.2c-0.2-0.3-0.4-0.6-0.6-0.9c-0.1-0.2-0.2-0.4-0.4-0.6c0-0.1-0.1-0.1-0.1-0.2c-0.3-0.5-0.6-1-0.8-1.5
			c-0.3-0.6-0.7-1.1-1-1.7c-0.1-0.2-0.2-0.5-0.4-0.7c0-0.1-0.1-0.2-0.1-0.2c-0.2-0.3-0.3-0.6-0.4-0.9c-0.2-0.3-0.3-0.6-0.5-0.9
			c-0.1-0.3-0.3-0.6-0.4-0.9c-0.1-0.2-0.2-0.4-0.3-0.7l0,0c0-0.1-0.1-0.2-0.1-0.3l0,0c-0.1-0.2-0.2-0.5-0.3-0.7
			c-0.1-0.3-0.3-0.6-0.4-0.9c-0.1-0.2-0.2-0.4-0.3-0.6c-0.1-0.3-0.3-0.6-0.4-0.9c-0.1-0.3-0.3-0.6-0.4-0.9c0-0.1-0.1-0.2-0.1-0.2
			c-0.1-0.1-0.1-0.3-0.2-0.4c-0.2-0.4-0.3-0.8-0.5-1.1c-0.2-0.4-0.3-0.9-0.5-1.3s-0.3-0.8-0.5-1.2l-0.1-0.1
			c-2.3-6.1-4.1-12.5-5.3-18.9l0,0c-0.7-3.7-1.1-7.4-1.4-11.1c0-0.2,0-0.4,0-0.6c-0.2-2.5-0.3-5.1-0.3-7.6c0-1.1,0-2.2,0-3.4
			c0.7-23.4,9.1-46,23.8-64.2c0.3-0.4,0.6-0.8,1-1.2c0.3-0.4,0.7-0.8,1-1.2c38.6-45.3,106.7-50.6,151.9-12
			c8.2,7,15.4,15.3,21.1,24.4c0.5,0.8,1,1.6,1.5,2.4c0.5,0.8,0.9,1.6,1.4,2.4C775.7,249.5,780.4,267.7,780.4,286.1z"/>
		<path class="st2" d="M676.9,215.7c-17.7,4.5-35.9,7.2-54.1,7.8c-2.8,0.2-5.5,0.1-8.3-0.1c-6.1-0.5-11.3-2.4-17.1-3.5
			c-2.8-0.5-5.9-0.9-8.7-1.4c0.6-0.8,1.3-1.6,2-2.4c6,0.5,12.2,2.2,18.3,3c10.4,1.3,22-0.2,29.9-3.8c3.8-1.8,6.8-4,10.6-5.7
			c0.5-0.3,1.1-0.4,1.7-0.5c1.1,0,2.2,0.2,3.1,0.8c6.4,3.2,15.7,5.8,24.3,4.4C679.2,214.8,678,215.4,676.9,215.7z"/>
		<path class="st2" d="M766.6,233.4c-3.6,0.3-7.2,0.5-10.8,0.6c-2.8,0.1-5.5,0.1-8.3-0.1c-6.1-0.5-11.3-2.4-17.1-3.5
			c-5.3-1-11.8-1.4-15.1-3.5c8.7-1.5,17.7,1.6,26.7,2.7c7.3,0.9,14.6,0.5,21.8-1.1C764.7,230.2,765.7,231.8,766.6,233.4z"/>
		<ellipse class="st9" cx="660.5" cy="300.2" rx="32.4" ry="33.1"/>
		<path class="st6" d="M723.1,381.4c-0.9,0.5-1.7,0.9-2.6,1.3c-0.3,0.2-0.6,0.3-0.9,0.5c-0.3,0.1-0.5,0.2-0.8,0.4
			c-0.1,0-0.2,0.1-0.2,0.1c-0.2,0.1-0.4,0.2-0.7,0.3c-0.2,0.1-0.5,0.2-0.7,0.3c-0.3,0.1-0.5,0.2-0.8,0.3c-1,0.5-2,0.9-3,1.3
			c-3.6,1.5-7.3,2.8-11.1,3.8c-0.2,0-0.3,0.1-0.5,0.2c-1.6,0.4-3.2,0.9-4.9,1.2c-2.8,0.7-5.7,1.2-8.6,1.6l0,0c-0.3,0-0.7,0.1-1,0.2
			h-0.1l0,0c-0.4,0-0.8,0.1-1.2,0.2h-0.1c-0.4,0-0.7,0.1-1.1,0.1c-0.4,0-0.8,0.1-1.2,0.1c-0.3,0-0.6,0.1-0.9,0.1h-0.1
			c-0.3,0-0.5,0-0.8,0.1l0,0c-0.2,0-0.5,0-0.7,0.1c-2.8,0.2-5.6,0.3-8.4,0.3c-3.1,0-6.1-0.1-9.1-0.4l0,0c-0.7-0.1-1.3-0.1-1.9-0.2
			c-0.2,0-0.3,0-0.5,0h-0.1c0,0-0.1,0-0.2,0h-0.1c-0.2,0-0.4,0-0.7-0.1l-0.8-0.1c-0.2,0-0.5-0.1-0.8-0.1c-0.1,0-0.1,0-0.2,0
			c-0.2,0-0.4,0-0.5-0.1c-0.1,0-0.2,0-0.3,0c-0.2,0-0.3,0-0.5-0.1l0,0c-5.5-0.8-10.9-2-16.2-3.7c-0.3-0.1-0.6-0.2-0.8-0.3
			c2.6-12.2,10.8-22.5,22-27.9c-1.4-1.3-2.3-3-2.7-4.9c-0.5-2.4-0.1-4.9,1.3-7c1.3-2,3.3-3.4,5.7-3.9l14.8-3.1c5-1,9.8,2.2,10.8,7.2
			c0.2,0.7,0.2,1.5,0.2,2.2C706.3,361,716.6,370.9,723.1,381.4z"/>
		<path class="st8" d="M747.1,285.9c-5.5-6.4-8.1-14.9-12.5-22.2c-4.4-7.3-12-13.8-20.1-12.1c-5.6,1.2-9.9,6.1-12.1,11.6
			c-2.2,5.5-2.6,11.5-3,17.5c0.1-12.2-7.9-24-18.9-27.9s-24.3,0.4-31.2,10.2c-6.3-5.8-15.9-6-22.4-0.5c-6.2,5.5-7.6,16.1-3,23.2
			s14.5,9.7,21.7,5.8l2.6,2.4c-1.4,5.1,1.4,11,6.1,12.9c3.8,1.5,9.2,1.3,10.6,5.3c1,2.8-0.9,5.8-2.9,7.9c-2,2.2-4.3,4.4-4.6,7.3
			c-0.4,4.5,4.3,7.6,8.5,8.6c10.2,2.3,21.5-2.4,27.3-11.4c0.1-0.2,0.2-0.3,0.4-0.5c6.6-8.5,9.5-19.4,7.9-30c-0.3-2.1,0-3.6,1.4-4.1
			c6.2-2.1,23.5,2.3,28.7,6.4c5.2,4,9.4,9.4,14.5,13.6c5,4.3,11.5,7.6,17.9,6.4c5.1-0.9,9.5-4.7,12.4-9.2s4.6-9.7,6.1-14.9
			C771.3,298.7,755.7,296,747.1,285.9z"/>
	</g>
	<g>
		<path class="st1" d="M82.8,219.1c0,2.4,0.1,4.9,0.2,7.3c0.2,2.9,0.5,5.7,0.9,8.6c1.4,9.6,4.1,18.9,8,27.7c0.2,0.4,0.4,0.9,0.6,1.3
			l0.3,0.7c0.1,0.2,0.2,0.4,0.3,0.6c0.1,0.3,0.3,0.6,0.4,0.9c0.2,0.4,0.3,0.7,0.5,1c0,0,0,0.1,0.1,0.1c0.1,0.3,0.3,0.6,0.5,0.9
			c0,0.1,0.1,0.1,0.1,0.2c0.2,0.3,0.4,0.7,0.5,1c0.2,0.4,0.4,0.7,0.6,1.1c0.5,0.9,1,1.8,1.5,2.6c0.1,0.3,0.3,0.5,0.5,0.8
			c0.1,0.2,0.3,0.5,0.4,0.7s0.2,0.3,0.3,0.5c0.2,0.3,0.3,0.5,0.5,0.8c0.4,0.6,0.8,1.2,1.1,1.8l0,0c0.2,0.3,0.4,0.5,0.5,0.8l0,0
			c0.5,0.8,1.1,1.6,1.6,2.4l0,0l0,0c0.4,0.6,0.9,1.3,1.4,1.9l0,0c0.3,0.4,0.6,0.8,0.9,1.2c0.2,0.3,0.5,0.6,0.7,1
			c0,0.1,0.1,0.1,0.2,0.2l0,0c0.1,0.1,0.1,0.2,0.2,0.3c1.1,1.4,2.2,2.7,3.3,4l0.2,0.2c0.1,0.1,0.1,0.1,0.2,0.2s0.2,0.2,0.3,0.3
			c0.1,0.1,0.2,0.2,0.3,0.3c5.9,6.6,12.5,12.5,19.8,17.5c1,0.7,2,1.3,3,2c0.2,0.2,0.5,0.3,0.8,0.5c0.1,0,0.1,0.1,0.2,0.1
			c0.1,0.1,0.3,0.2,0.4,0.2c0.1,0.1,0.3,0.2,0.4,0.2c0.5,0.3,1.1,0.6,1.6,1c0.1,0.1,0.3,0.2,0.4,0.2c0.1,0.1,0.3,0.1,0.4,0.2l0,0
			l0,0l0,0l0,0c0.7,0.4,1.4,0.8,2,1.1c0.4,0.2,0.8,0.4,1.1,0.6c0.9,0.5,1.7,0.9,2.6,1.4c0.3,0.1,0.6,0.3,0.9,0.5
			c0.3,0.1,0.5,0.2,0.8,0.4c0.1,0,0.1,0.1,0.2,0.1c0.2,0.1,0.4,0.2,0.6,0.3c0.2,0.1,0.5,0.2,0.7,0.3c0.3,0.1,0.5,0.2,0.8,0.4
			c1,0.5,2,0.9,3,1.3c3.6,1.5,7.3,2.8,11.1,3.8c0.2,0,0.4,0.1,0.5,0.1c1.6,0.4,3.2,0.9,4.9,1.2c2.9,0.7,5.7,1.2,8.6,1.6l0,0
			c0.4,0,0.7,0.1,1,0.1h0.1l0,0c0.4,0,0.8,0.1,1.1,0.1h0.1c0.4,0,0.7,0.1,1.1,0.1c0.4,0,0.8,0.1,1.2,0.1c0.3,0,0.6,0.1,0.9,0.1h0.1
			c0.3,0,0.5,0,0.8,0.1l0,0c0.2,0,0.5,0,0.7,0.1c2.8,0.2,5.6,0.3,8.4,0.3c3.1,0,6.1-0.1,9.1-0.4l0,0c0.6-0.1,1.3-0.1,1.9-0.2
			c0.2,0,0.3,0,0.5,0h0.1c0,0,0.1,0,0.2,0h0.1c0.2,0,0.4,0,0.7-0.1l0.8-0.1c0.2,0,0.5-0.1,0.8-0.1c0.1,0,0.1,0,0.2,0
			c0.2,0,0.4,0,0.5-0.1c0.1,0,0.2,0,0.3,0c0.2,0,0.4,0,0.5-0.1l0,0c5.5-0.8,10.9-2,16.2-3.6c0.3-0.1,0.6-0.2,0.8-0.3l0,0
			c0.1,0,0.2,0,0.2-0.1c0.8-0.2,1.5-0.5,2.2-0.8c1-0.3,2-0.7,3-1.1c0.3-0.1,0.5-0.2,0.8-0.3c0.5-0.2,1.1-0.4,1.6-0.6
			c0.9-0.4,1.8-0.8,2.8-1.2c0.9-0.4,1.7-0.8,2.5-1.2c0,0,0,0,0.1,0c0.2-0.1,0.4-0.2,0.6-0.3l0,0c4.6-2.2,9-4.7,13.3-7.6
			c1.4-0.9,2.7-1.9,4-2.8c1.1-0.8,2.1-1.6,3.1-2.4c5.1-4.1,9.9-8.6,14.2-13.6l0,0c0.3-0.3,0.6-0.7,0.9-1l0.1-0.1
			c0.2-0.2,0.4-0.5,0.6-0.7l0,0c0.2-0.3,0.5-0.6,0.7-0.9c0.1-0.1,0.1-0.1,0.2-0.2l0,0c0.2-0.2,0.4-0.5,0.6-0.7
			c0.1-0.1,0.2-0.2,0.3-0.4l0,0c0.6-0.7,1.2-1.5,1.7-2.2c0.2-0.2,0.3-0.4,0.5-0.6c0.7-1,1.4-2,2.1-3l0,0c0.3-0.4,0.5-0.8,0.8-1.1
			c0.2-0.4,0.5-0.8,0.8-1.1c0.2-0.4,0.5-0.8,0.8-1.2v-0.1c0.2-0.4,0.5-0.8,0.7-1.2c0.2-0.3,0.4-0.6,0.6-0.9c0.1-0.2,0.2-0.4,0.4-0.6
			c0-0.1,0.1-0.1,0.1-0.2c0.3-0.5,0.6-1,0.8-1.5c0.3-0.6,0.6-1.1,1-1.7c0.1-0.2,0.2-0.5,0.4-0.7c0-0.1,0.1-0.2,0.1-0.2
			c0.2-0.3,0.3-0.6,0.4-0.9c0.2-0.3,0.3-0.6,0.5-0.9c0.1-0.3,0.3-0.6,0.4-0.9c0.1-0.2,0.2-0.4,0.3-0.7l0,0c0-0.1,0.1-0.2,0.1-0.3
			l0,0c0.1-0.2,0.2-0.5,0.3-0.7c0.1-0.3,0.3-0.6,0.4-0.9c0.1-0.2,0.2-0.4,0.3-0.6c0.1-0.3,0.3-0.6,0.4-0.9s0.3-0.6,0.4-0.9
			c0-0.1,0.1-0.2,0.1-0.2c0.1-0.1,0.1-0.3,0.2-0.4c0.2-0.4,0.3-0.8,0.5-1.1c0.2-0.4,0.3-0.9,0.5-1.3s0.3-0.8,0.5-1.2l0.1-0.1
			c2.3-6.1,4.1-12.5,5.3-18.9l0,0c0.7-3.7,1.1-7.4,1.4-11.1c0-0.2,0-0.4,0-0.6c0.2-2.5,0.3-5.1,0.3-7.6c0-1.1,0-2.2,0-3.4
			c-0.7-23.4-9.1-46-23.8-64.2c-0.3-0.4-0.6-0.8-1-1.2c-0.3-0.4-0.7-0.8-1-1.2c-38.6-45.3-106.7-50.6-151.9-12
			c-8.2,7-15.4,15.3-21.1,24.4c-0.5,0.8-1,1.6-1.5,2.4c-0.5,0.8-0.9,1.6-1.4,2.4C87.5,182.5,82.8,200.7,82.8,219.1z"/>
		<path class="st2" d="M186.3,148.7c17.7,4.5,35.9,7.2,54.1,7.8c2.8,0.2,5.5,0.1,8.3-0.1c6.1-0.5,11.3-2.4,17.1-3.5
			c2.8-0.5,5.9-0.9,8.7-1.4c-0.6-0.8-1.3-1.6-2-2.4c-6,0.5-12.2,2.2-18.3,3c-10.4,1.3-22-0.2-29.9-3.8c-3.8-1.8-6.8-4-10.6-5.7
			c-0.5-0.3-1.1-0.4-1.7-0.5c-1.1,0-2.2,0.2-3.1,0.8c-6.4,3.2-15.7,5.8-24.3,4.4C184,147.8,185.2,148.4,186.3,148.7z"/>
		<path class="st2" d="M96.6,166.4c3.6,0.3,7.2,0.5,10.8,0.6c2.8,0.1,5.5,0.1,8.3-0.1c6.1-0.5,11.3-2.4,17.1-3.5
			c5.3-1,11.8-1.4,15.1-3.5c-8.7-1.5-17.7,1.6-26.7,2.7c-7.3,0.9-14.6,0.5-21.8-1.1C98.5,163.2,97.5,164.8,96.6,166.4z"/>
		<path class="st6" d="M140.1,314.4c0.9,0.5,1.7,0.9,2.6,1.4c0.3,0.1,0.6,0.3,0.9,0.5c0.3,0.1,0.5,0.2,0.8,0.4
			c0.1,0,0.1,0.1,0.2,0.1c0.2,0.1,0.4,0.2,0.6,0.3c0.2,0.1,0.5,0.2,0.7,0.3c0.3,0.1,0.5,0.2,0.8,0.4c1,0.5,2,0.9,3,1.3
			c3.6,1.5,7.3,2.8,11.1,3.8c0.2,0,0.4,0.1,0.5,0.1c1.6,0.5,3.2,0.9,4.9,1.2c2.9,0.7,5.7,1.2,8.6,1.6l0,0c0.4,0,0.7,0.1,1,0.1h0.1
			l0,0c0.4,0,0.8,0.1,1.1,0.1h0.1c0.4,0,0.7,0.1,1.1,0.1c0.4,0,0.8,0.1,1.2,0.1c0.3,0,0.6,0.1,0.9,0.1h0.1c0.3,0,0.5,0,0.8,0.1l0,0
			c0.2,0,0.5,0,0.7,0.1c2.8,0.2,5.6,0.3,8.4,0.3c3.1,0,6.1-0.1,9.1-0.4l0,0c0.6-0.1,1.3-0.1,1.9-0.2c0.2,0,0.3,0,0.5,0h0.1
			c0,0,0.1,0,0.2,0h0.1c0.2,0,0.4,0,0.7-0.1l0.8-0.1c0.2,0,0.5-0.1,0.8-0.1c0.1,0,0.1,0,0.2,0c0.2,0,0.4,0,0.5-0.1
			c0.1,0,0.2,0,0.3,0c0.2,0,0.4,0,0.5-0.1l0,0c5.5-0.8,10.9-2,16.2-3.6c0.3-0.1,0.6-0.2,0.8-0.3c-2.6-12.2-10.8-22.5-22-27.9
			c1.4-1.3,2.3-3,2.7-4.9c0.5-2.4,0.1-4.9-1.3-7c-1.3-2-3.3-3.4-5.7-3.9l-14.8-3.1c-5-1-9.8,2.2-10.8,7.2c-0.2,0.7-0.2,1.5-0.2,2.2
			C156.9,294,146.6,303.9,140.1,314.4z"/>
		<circle class="st10" cx="198.8" cy="229" r="36.1"/>
		<path class="st8" d="M193.6,263.2c-9,2.4-19-0.8-26-7s-11.5-14.9-14-23.9c-1.9-6.6-2.7-13.9,0.2-20.1s10.8-10.4,16.9-7.2
			c-3.8-4.4-1.9-11.6,2.5-15.4s10.4-4.8,16.2-5.4c8.3-0.9,16.9-0.9,24.9,1.8s15.1,8.6,17.6,16.6c5.2,2.4,11.4,1,15.1-3.4
			c0.9,5.1-1.6,10.2-6.3,12.4l12.2-3.9c2.1,4.4-1.6,9.9-6.3,11.3s-9.7-0.1-14.2-2.2s-8.8-4.6-13.6-5.4s-10.5,0.8-12.7,5.1
			c-1.2,2.3-1.2,5-1.9,7.4s-2.4,5-5,5.2c-1.6,0.1-3.2-0.7-4.8-0.6c-2,0.4-3.6,2-4.1,4c-0.4,2-0.4,4,0,6l3.1,23.6L193.6,263.2z"/>
	</g>
	<g>
		<path class="st1" d="M504.5,618.2c0,2.4,0.1,4.9,0.2,7.3c0.2,2.9,0.5,5.7,0.9,8.6c1.4,9.6,4.1,18.9,8,27.7
			c0.2,0.4,0.4,0.9,0.6,1.3l0.3,0.7c0.1,0.2,0.2,0.4,0.3,0.7s0.3,0.6,0.4,0.8c0.2,0.4,0.3,0.7,0.5,1c0,0,0,0.1,0.1,0.1
			c0.1,0.3,0.3,0.6,0.5,0.9c0,0.1,0.1,0.1,0.1,0.2c0.2,0.3,0.4,0.7,0.5,1c0.2,0.4,0.4,0.7,0.6,1.1c0.5,0.9,1,1.8,1.5,2.7
			c0.1,0.3,0.3,0.5,0.5,0.8c0.1,0.2,0.3,0.5,0.4,0.7c0.1,0.2,0.2,0.3,0.3,0.5c0.2,0.3,0.3,0.5,0.5,0.8c0.4,0.6,0.8,1.2,1.1,1.8l0,0
			c0.2,0.3,0.4,0.5,0.5,0.8l0,0c0.5,0.8,1.1,1.6,1.6,2.4l0,0l0,0c0.4,0.6,0.9,1.3,1.4,1.9l0,0c0.3,0.4,0.6,0.8,0.9,1.2
			c0.2,0.3,0.5,0.7,0.7,1c0,0.1,0.1,0.1,0.2,0.2l0,0c0.1,0.1,0.1,0.2,0.2,0.3c1.1,1.4,2.2,2.7,3.3,4l0.2,0.2
			c0.1,0.1,0.1,0.1,0.2,0.2c0.1,0.1,0.2,0.2,0.3,0.3s0.2,0.2,0.3,0.3c5.9,6.6,12.5,12.5,19.8,17.5c1,0.7,2,1.3,3,2
			c0.2,0.2,0.5,0.3,0.8,0.5c0.1,0,0.1,0.1,0.2,0.2c0.1,0.1,0.3,0.2,0.4,0.2c0.1,0.1,0.3,0.2,0.4,0.2c0.5,0.3,1.1,0.6,1.6,1
			c0.1,0.1,0.3,0.2,0.4,0.2c0.1,0.1,0.3,0.2,0.4,0.2l0,0l0,0l0,0l0,0c0.7,0.4,1.4,0.8,2,1.1c0.4,0.2,0.8,0.4,1.1,0.6
			c0.9,0.5,1.7,0.9,2.6,1.4c0.3,0.1,0.6,0.3,0.9,0.5c0.3,0.1,0.5,0.2,0.8,0.4c0.1,0,0.1,0.1,0.2,0.1c0.2,0.1,0.4,0.2,0.7,0.3
			c0.2,0.1,0.5,0.2,0.7,0.3c0.3,0.1,0.5,0.2,0.8,0.3c1,0.5,2,0.9,3,1.3c3.6,1.5,7.3,2.8,11.1,3.8c0.2,0,0.4,0.1,0.5,0.2
			c1.6,0.4,3.2,0.9,4.9,1.2c2.8,0.7,5.7,1.2,8.6,1.6l0,0c0.4,0,0.7,0.1,1,0.2h0.1l0,0c0.4,0,0.8,0.1,1.2,0.1h0.1
			c0.4,0,0.7,0.1,1.1,0.1c0.4,0,0.8,0.1,1.2,0.1c0.3,0,0.6,0.1,0.9,0.1h0.1c0.3,0,0.5,0,0.8,0.1l0,0c0.2,0,0.5,0,0.7,0.1
			c2.8,0.2,5.6,0.3,8.4,0.3c3.1,0,6.1-0.1,9.1-0.4l0,0c0.7-0.1,1.3-0.1,1.9-0.2c0.2,0,0.3,0,0.5,0h0.1c0,0,0.1,0,0.2,0h0.1
			c0.2,0,0.4,0,0.7-0.1l0.8-0.1c0.2,0,0.5-0.1,0.8-0.1c0.1,0,0.1,0,0.2,0c0.2,0,0.4,0,0.5-0.1c0.1,0,0.2,0,0.3,0
			c0.2,0,0.4,0,0.5-0.1l0,0c5.5-0.8,10.9-2,16.2-3.7c0.3-0.1,0.6-0.2,0.8-0.3l0,0c0.1,0,0.2,0,0.2-0.1c0.8-0.2,1.5-0.5,2.2-0.8
			c1-0.3,2-0.7,3-1.1c0.3-0.1,0.5-0.2,0.8-0.3c0.5-0.2,1.1-0.4,1.6-0.6c0.9-0.4,1.8-0.8,2.8-1.2c0.8-0.4,1.7-0.8,2.5-1.2
			c0,0,0,0,0.1,0c0.2-0.1,0.4-0.2,0.6-0.3l0,0c4.6-2.2,9-4.7,13.3-7.6c1.4-0.9,2.7-1.8,4-2.8c1.1-0.8,2.1-1.6,3.1-2.4
			c5.1-4.1,9.9-8.6,14.2-13.6l0,0c0.3-0.3,0.6-0.7,0.9-1l0.1-0.1c0.2-0.2,0.4-0.5,0.6-0.7l0,0c0.2-0.3,0.5-0.6,0.7-0.9
			c0.1-0.1,0.1-0.1,0.2-0.2l0,0c0.2-0.2,0.4-0.5,0.6-0.7c0.1-0.1,0.2-0.2,0.3-0.4l0,0c0.6-0.7,1.2-1.5,1.7-2.2
			c0.1-0.2,0.3-0.4,0.5-0.6c0.7-1,1.4-2,2.1-3l0,0c0.3-0.4,0.5-0.8,0.8-1.1c0.2-0.4,0.5-0.8,0.8-1.1c0.2-0.4,0.5-0.8,0.8-1.2v-0.1
			c0.2-0.4,0.5-0.8,0.7-1.2c0.2-0.3,0.4-0.6,0.6-0.9c0.1-0.2,0.2-0.4,0.4-0.6c0-0.1,0.1-0.1,0.1-0.2c0.3-0.5,0.6-1,0.8-1.5
			c0.3-0.6,0.7-1.1,1-1.7c0.1-0.2,0.2-0.5,0.4-0.7c0-0.1,0.1-0.2,0.1-0.2c0.1-0.3,0.3-0.6,0.4-0.9c0.1-0.3,0.3-0.6,0.5-0.9
			c0.1-0.3,0.3-0.6,0.4-0.9c0.1-0.2,0.2-0.4,0.3-0.7l0,0c0-0.1,0.1-0.2,0.1-0.3l0,0c0.1-0.2,0.2-0.5,0.3-0.7
			c0.1-0.3,0.3-0.6,0.4-0.9c0.1-0.2,0.2-0.4,0.3-0.6c0.1-0.3,0.3-0.6,0.4-0.9c0.1-0.3,0.3-0.6,0.4-0.9c0-0.1,0.1-0.2,0.1-0.2
			c0.1-0.1,0.1-0.3,0.2-0.4c0.2-0.4,0.3-0.8,0.5-1.1c0.2-0.4,0.4-0.9,0.5-1.3c0.2-0.4,0.3-0.8,0.5-1.2l0.1-0.1
			c2.3-6.1,4.1-12.5,5.3-18.9l0,0c0.7-3.7,1.1-7.4,1.4-11.1c0-0.2,0-0.4,0-0.6c0.2-2.5,0.3-5.1,0.3-7.6c0-1.1,0-2.2,0-3.4
			c-0.7-23.4-9.1-46-23.8-64.2c-0.3-0.4-0.6-0.8-1-1.2c-0.3-0.4-0.7-0.8-1-1.2c-38.6-45.3-106.7-50.6-151.9-12
			c-8.2,7-15.4,15.3-21.1,24.4c-0.5,0.8-1,1.6-1.5,2.4c-0.5,0.8-0.9,1.6-1.4,2.4C509.3,581.5,504.5,599.7,504.5,618.2z"/>
		<path class="st2" d="M608,547.7c17.7,4.5,35.9,7.2,54.1,7.8c2.8,0.2,5.5,0.1,8.3-0.1c6.1-0.5,11.3-2.4,17.1-3.5
			c2.8-0.5,5.9-0.9,8.7-1.4c-0.6-0.8-1.3-1.6-2-2.4c-6,0.5-12.2,2.2-18.3,3c-10.4,1.3-22-0.2-29.9-3.8c-3.8-1.8-6.8-4-10.6-5.7
			c-0.5-0.3-1.1-0.4-1.7-0.5c-1.1,0-2.2,0.2-3.1,0.8c-6.4,3.2-15.7,5.8-24.3,4.4C605.7,546.9,606.9,547.4,608,547.7z"/>
		<path class="st2" d="M518.3,565.4c3.6,0.3,7.2,0.5,10.8,0.6c2.8,0.1,5.5,0.1,8.3-0.1c6.1-0.5,11.3-2.4,17.1-3.5
			c5.3-1,11.8-1.4,15.1-3.5c-8.7-1.5-17.7,1.6-26.7,2.7c-7.3,0.9-14.6,0.5-21.8-1.1C520.2,562.2,519.2,563.8,518.3,565.4z"/>
	</g>
</g>
</svg>
