<?xml version="1.0" encoding="UTF-8"?><svg xmlns="http://www.w3.org/2000/svg" height="32px" viewBox="0 0 142.61 78.25"><defs><style>.cls-1{fill:#fff;}</style></defs><g id="Fxb5Q7"><path class="cls-1" d="m62.4,54.61c-3.74-.09-7.46-.88-11.05-2.32-5.17-2.08-9.75-5.08-13.89-8.77-.91-.81-1.76-1.68-2.59-2.56-.93-.98-.91-1.87.01-2.86,3.04-3.25,6.52-5.96,10.35-8.24,2.84-1.7,5.81-3.11,8.98-4.07,3.48-1.05,7.04-1.52,10.68-1.22,3.96.33,7.71,1.43,11.3,3.11,3.38,1.58,6.48,3.6,9.41,5.89,1.68,1.31,3.25,2.73,4.73,4.27,1.21,1.26,1.22,2.1.02,3.36-2.96,3.11-6.33,5.73-9.99,7.93-3.17,1.91-6.52,3.45-10.13,4.4-2.53.66-5.1,1-7.83,1.07Zm.3-25.35c-6.06-.08-10.24,5.18-10.29,10.12-.06,6.16,5.04,10.51,10.39,10.46,5.6-.05,10.19-4.65,10.22-10.24.03-5.73-4.69-10.44-10.33-10.35Zm11.14,1.56c3.97,5.8,3.91,11.59.03,17.39,2.6-.74,10.8-6.3,12.79-8.7-3.8-3.57-8.06-6.47-12.82-8.69Zm-35.12,8.71c3.85,3.6,8.09,6.52,12.87,8.67-1.91-2.61-2.96-5.5-2.94-8.71.01-3.19,1.08-6.07,2.98-8.66-4.78,2.2-9.04,5.11-12.9,8.7Z"/><path class="cls-1" d="m61.14,63.94c0-.83-.01-1.66,0-2.49.02-.94.54-1.57,1.35-1.69.96-.14,1.78.57,1.8,1.64.04,1.69.05,3.38,0,5.06-.04,1.35-1.39,2.06-2.45,1.36-.51-.34-.7-.85-.7-1.43-.01-.82,0-1.64,0-2.45Z"/><path class="cls-1" d="m79.81,23.38c-1.09,0-1.86-.97-1.49-1.99.62-1.71,1.28-3.4,1.98-5.08.33-.8,1.22-1.12,1.99-.82.75.29,1.17,1.1.88,1.92-.48,1.37-1.02,2.71-1.55,4.06-.14.36-.26.72-.44,1.06-.28.54-.81.85-1.37.85Z"/><path class="cls-1" d="m43.82,63.73c-1.04,0-1.82-.93-1.57-1.83.24-.88.59-1.74.92-2.6.33-.87.66-1.75,1.03-2.61.39-.89,1.29-1.2,2.14-.78.67.32,1.04,1.09.79,1.79-.62,1.71-1.26,3.41-1.93,5.1-.25.64-.81.91-1.37.94Z"/><path class="cls-1" d="m83.31,62.17c-.05.7-.52,1.32-1.15,1.49-.71.19-1.46-.09-1.79-.75-.33-.66-.6-1.35-.87-2.03-.4-1.02-.79-2.04-1.15-3.07-.34-1.01.11-1.78,1.15-2.03.62-.15,1.34.18,1.68.84.27.53.47,1.09.69,1.64.42,1.07.84,2.13,1.25,3.2.09.23.13.48.19.72Z"/><path class="cls-1" d="m47.2,21.69c0,.83-.48,1.42-1.23,1.63-.62.18-1.36-.12-1.67-.75-.3-.61-.54-1.26-.79-1.9-.41-1.06-.81-2.11-1.19-3.18-.31-.9.08-1.72.92-2.02.84-.3,1.67.09,2.01.97.59,1.52,1.17,3.05,1.75,4.57.1.26.15.53.19.68Z"/><path class="cls-1" d="m64.3,15.2c0,.81.01,1.61,0,2.42-.01.58-.21,1.09-.71,1.43-.47.31-.96.41-1.49.15-.61-.3-.94-.8-.95-1.45-.03-1.69-.03-3.38,0-5.07.01-.71.34-1.27,1.05-1.54.63-.24,1.17-.07,1.63.38.36.35.48.81.48,1.3,0,.79,0,1.59,0,2.38Z"/><path class="cls-1" d="m62.77,33.45c3.36-.01,6.03,2.7,6.05,6.17.02,3.29-2.72,6.03-6.05,6.05-3.43.02-6.14-2.69-6.15-6.16,0-3.38,2.71-6.04,6.16-6.06Z"/></g></svg>