<?xml version="1.0" encoding="UTF-8"?><svg height="32px" xmlns="http://www.w3.org/2000/svg" viewBox="0 0 142.61 78.25"><defs><style>.cls-1{fill:#fff;}</style></defs><path class="cls-1" d="m33.25,36.09c0-.91,0-1.82,0-2.73.03-.14.07-.28.09-.42.12-.82.2-1.64.37-2.45.95-4.4,3.14-8.07,6.51-11.03,2.73-2.39,5.88-3.95,9.45-4.63.82-.16,1.66-.26,2.49-.38.91,0,1.82,0,2.73,0,.14.03.28.07.42.09,2.84.23,5.51,1.05,7.99,2.44,3.88,2.18,6.8,5.28,8.66,9.34,1.99,4.34,2.38,8.84,1.18,13.45-.37,1.43-.96,2.81-1.49,4.35.03.03.19.12.32.24,3.07,3.06,6.13,6.13,9.2,9.2.81.81,1.42,1.73,1.74,2.83.09.32.17.65.26.97v1.56c-.03.07-.08.14-.09.21-.35,1.99-1.39,3.5-3.16,4.46-.68.37-1.47.53-2.21.79h-1.56s-.08-.07-.12-.07c-1.51-.21-2.73-.95-3.79-2.02-3.02-3.04-6.06-6.07-9.09-9.11-.13-.13-.21-.29-.31-.42-.3.14-.51.23-.71.33-4.16,1.93-8.49,2.44-12.97,1.45-4.32-.95-7.94-3.13-10.87-6.44-2.41-2.74-3.98-5.9-4.66-9.49-.16-.83-.26-1.66-.38-2.49Zm20.3-16.96c-8.56-.03-15.59,6.99-15.62,15.58-.03,8.56,6.99,15.59,15.58,15.62,8.56.03,15.59-6.99,15.62-15.58.03-8.56-6.99-15.59-15.58-15.62Zm23.3,38.44c.69-.1,1.25-.45,1.5-1.01.28-.61.16-1.25-.36-1.79-1.43-1.44-2.86-2.88-4.3-4.31-.7-.69-1.62-.7-2.26-.06-.63.63-.62,1.57.06,2.26,1.43,1.44,2.85,2.89,4.31,4.3.28.27.7.41,1.06.61Z"/></svg>