<?xml version="1.0" encoding="UTF-8"?><svg height="32px" xmlns="http://www.w3.org/2000/svg" viewBox="0 0 142.61 78.25"><defs><style>.cls-1{fill:#fff;}</style></defs><g id="IdMrs2"><path class="cls-1" d="m55.04,17.93c0,.79.03,1.56,0,2.32-.05,1.02-.08,2.06-.27,3.07-.4,2.11-2.12,3.21-3.97,3.31-2.05.11-4.11.12-6.16.16-.19,0-.26.04-.25.24.01.39,0,.78,0,1.16,0,9.43,0,18.86,0,28.28,0,.11,0,.21,0,.32-.23,1.66,1.18,3.13,2.4,3.62.2.08.44.09.65.09,8.41,0,16.82-.02,25.23.03,1.79,0,2.86-.85,3.56-2.36.13-.29.18-.63.18-.95,0-5.36,0-10.73-.01-16.09,0-.35.08-.61.36-.86.63-.57,1.22-1.2,1.82-1.8.03-.03.08-.06.1-.07.37.28.73.53,1.07.81.09.07.15.23.15.34-.02,3.78-.04,7.57-.07,11.35-.02,2.21-.07,4.42-.07,6.63,0,1.24-.47,2.3-1.14,3.29-.94,1.38-2.21,2.34-3.79,2.84-.58.19-1.22.25-1.83.25-7.26.04-14.53.07-21.79.07-1.52,0-3.04-.1-4.56-.18-.98-.05-1.79-.54-2.56-1.08-1.29-.91-2.24-2.09-2.76-3.58-.18-.51-.22-1.08-.23-1.63-.06-5.03-.1-10.07-.13-15.1-.02-3.62-.02-7.24-.01-10.85,0-1.47.07-2.95.06-4.42,0-1.09.34-2.07.96-2.93.6-.83,1.22-1.66,1.91-2.41,1.9-2.03,3.96-3.88,6.33-5.36,1.05-.66,2.13-1.28,3.33-1.63.58-.17,1.19-.29,1.79-.31,1.66-.06,3.32-.07,4.97-.08,2.35-.01,4.69-.02,7.04,0,1.95.02,3.9.1,5.85.11,1.6,0,2.94.59,4.11,1.64,1.16,1.03,2.04,2.24,2.34,3.78.12.61.15,1.23.18,1.85.05.77.06,1.55.08,2.33,0,.12-.04.28-.12.36-1.05,1.07-2.1,2.12-3.15,3.18-.04.04-.09.07-.18.14,0-.62,0-1.18,0-1.75-.02-1.71-.05-3.41-.07-5.12,0-.36-.09-.68-.27-.99-.52-.94-1.29-1.58-2.28-1.97-.1-.04-.22-.06-.34-.06-6.07,0-12.14,0-18.22,0-.06,0-.11,0-.21.01Z"/><path class="cls-1" d="m90.82,22.51c.03.51-.22,1-.65,1.44-1.75,1.78-3.47,3.58-5.23,5.34-3.62,3.62-7.25,7.23-10.89,10.83-1.78,1.76-3.59,3.51-5.42,5.23-1.3,1.21-2.82,2.12-4.39,2.92-.65.33-1.34.61-2.04.83-.7.22-.87.03-.68-.68.29-1.09.83-2.06,1.36-3.04,1.07-1.95,2.5-3.62,4.05-5.18,4.13-4.18,8.27-8.35,12.41-12.51,2.13-2.14,4.29-4.26,6.44-6.39.3-.3.62-.59.93-.88.67-.62,1.43-.82,2.3-.48,1.04.41,1.83,1.21,1.79,2.56Z"/><path class="cls-1" d="m60.59,54.23c-3.61,0-7.21,0-10.82,0-.32,0-.64-.03-.96-.06-.28-.02-.46-.18-.57-.43-.19-.46-.24-.93-.06-1.41.14-.39.27-.52.7-.53,1.21-.05,2.42-.11,3.63-.11,5.93-.01,11.87,0,17.8,0,.58,0,1.16.06,1.74.13.16.02.38.16.45.3.25.48.32.99.11,1.51-.18.44-.4.61-.88.61-1.24,0-2.48.02-3.72.02-2.47,0-4.95,0-7.42,0,0,0,0-.01,0-.02Z"/><path class="cls-1" d="m60.37,30.38c3.72,0,7.45,0,11.17,0,.48,0,.84.12,1.04.56.07.15.1.4.02.5-.4.51-.83.99-1.26,1.47-.05.06-.18.07-.27.07-6.35,0-12.7,0-19.06-.02-1.05,0-2.09-.06-3.14-.08-.27,0-.46-.12-.58-.36-.29-.55-.32-1.11,0-1.66.14-.25.33-.38.63-.38,1.98-.02,3.96-.05,5.93-.06,1.84-.01,3.68,0,5.53,0,0,0,0-.02,0-.03Z"/><path class="cls-1" d="m68.58,35.73c-.2.18-.35.31-.49.45-.6.59-1.2,1.18-1.78,1.79-.25.26-.52.35-.87.35-1.5,0-3,0-4.51,0-3.32-.02-6.65-.04-9.97-.06-.66,0-1.32-.02-1.98-.02-.42,0-.66-.22-.79-.6-.16-.48-.18-.95.06-1.41.12-.23.29-.38.56-.39,1.24-.03,2.48-.09,3.72-.09,5.16-.01,10.31,0,15.47,0,.16,0,.32,0,.58,0Z"/><path class="cls-1" d="m63.55,41.02c-.12.17-.24.32-.35.48-.46.64-.91,1.28-1.38,1.91-.08.1-.23.21-.34.21-3.42.01-6.85.02-10.27.01-.78,0-1.57-.05-2.35-.11-.18-.01-.39-.14-.5-.28-.37-.47-.39-1.33-.03-1.81.12-.15.36-.28.56-.29.91-.05,1.82-.08,2.73-.09,3.77-.02,7.54-.03,11.32-.04.19,0,.38,0,.62,0Z"/><path class="cls-1" d="m91.62,25.8c.15.27.3.47.38.69.22.59.24,1.2.08,1.8-.05.2-.17.39-.31.54-1.13,1.21-2.24,2.44-3.42,3.61-1.6,1.59-3.25,3.14-4.89,4.69-.8.76-1.97.85-2.92.28-.31-.18-.33-.24-.09-.5,1.08-1.13,2.16-2.25,3.26-3.36,2.21-2.22,4.43-4.42,6.66-6.63.38-.38.8-.73,1.25-1.13Z"/><path class="cls-1" d="m60.2,46.31c-.15.46-.32.88-.43,1.31-.1.37-.13.76-.21,1.14-.02.08-.13.19-.2.19-.39.02-.77,0-1.16,0-3.11-.03-6.22-.05-9.34-.09-.16,0-.37-.11-.45-.23-.43-.61-.45-1.27-.1-1.92.07-.14.31-.23.48-.26.42-.05.85-.07,1.28-.07,3.3-.03,6.59-.05,9.89-.07.07,0,.13,0,.24,0Z"/><path class="cls-1" d="m67.23,48.9c1.06-.81,2.13-1.63,3.2-2.44.33-.25.71-.11,1.07-.13.05,0,.09.02.14.02,1.01.03,1.12.78,1.08,1.51,0,.2-.11.41-.2.6-.12.26-.32.42-.63.42-1.39,0-2.79,0-4.18.01-.17,0-.34,0-.48,0Z"/></g></svg>