<?xml version="1.0" encoding="UTF-8"?><svg xmlns="http://www.w3.org/2000/svg" xmlns:xlink="http://www.w3.org/1999/xlink" viewBox="0 0 111.83 111.83"><defs><style>.cls-1{fill:url(#Dégradé_sans_nom_18);}.cls-2{fill:url(#Dégradé_sans_nom_18-2);}.cls-3{fill:#fff;opacity:.74;}</style><linearGradient id="Dégradé_sans_nom_18" x1="11.25" y1="16.82" x2="61.34" y2="88.78" gradientUnits="userSpaceOnUse"><stop offset=".09" stop-color="#f3e521"/><stop offset=".92" stop-color="#ecb15e"/></linearGradient><linearGradient id="Dégradé_sans_nom_18-2" x1="31.95" y1="2.41" x2="82.04" y2="74.36" xlink:href="#Dégradé_sans_nom_18"/></defs><circle class="cls-3" cx="55.92" cy="55.92" r="55.9"/><path class="cls-1" d="m40.65,30.97c-.62,0-1.12.5-1.12,1.12v53.93c0,.62.5,1.12,1.12,1.12s1.12-.5,1.12-1.12v-53.93c0-.62-.5-1.12-1.12-1.12Z"/><path class="cls-2" d="m66.96,45.57l10.44-10.44c.32-.32.42-.8.24-1.22-.17-.42-.58-.69-1.04-.69h-29.21c-.62,0-1.12.5-1.12,1.12v22.47c0,.62.5,1.12,1.12,1.12h29.21c.45,0,.87-.27,1.04-.69.17-.42.08-.9-.24-1.22l-10.44-10.44Z"/></svg>